<mxfile host="app.diagrams.net" modified="2023-11-01T21:32:48.558Z" agent="Mozilla/5.0 (Windows NT 10.0; Win64; x64) AppleWebKit/537.36 (KHTML, like Gecko) Chrome/118.0.0.0 Safari/537.36" etag="4fACZTbuFvWx1plp2OXM" version="22.0.8" type="google">
  <diagram id="C5RBs43oDa-KdzZeNtuy" name="Page-1">
    <mxGraphModel grid="1" page="1" gridSize="1" guides="1" tooltips="1" connect="1" arrows="1" fold="1" pageScale="1" pageWidth="1100" pageHeight="1100" math="0" shadow="0">
      <root>
        <mxCell id="WIyWlLk6GJQsqaUBKTNV-0" />
        <mxCell id="WIyWlLk6GJQsqaUBKTNV-1" parent="WIyWlLk6GJQsqaUBKTNV-0" />
        <mxCell id="P5qbRvnEPiiORGq3-WAF-12" style="edgeStyle=orthogonalEdgeStyle;rounded=0;orthogonalLoop=1;jettySize=auto;html=1;exitX=1;exitY=0.5;exitDx=0;exitDy=0;entryX=0;entryY=0.5;entryDx=0;entryDy=0;endArrow=ERmany;endFill=0;" edge="1" parent="WIyWlLk6GJQsqaUBKTNV-1" source="P5qbRvnEPiiORGq3-WAF-23" target="P5qbRvnEPiiORGq3-WAF-9">
          <mxGeometry relative="1" as="geometry" />
        </mxCell>
        <mxCell id="P5qbRvnEPiiORGq3-WAF-20" style="edgeStyle=orthogonalEdgeStyle;shape=connector;rounded=0;orthogonalLoop=1;jettySize=auto;html=1;exitX=0;exitY=0.5;exitDx=0;exitDy=0;entryX=1;entryY=0.5;entryDx=0;entryDy=0;labelBackgroundColor=default;strokeColor=default;align=center;verticalAlign=middle;fontFamily=Helvetica;fontSize=11;fontColor=default;endArrow=ERmany;endFill=0;" edge="1" parent="WIyWlLk6GJQsqaUBKTNV-1" source="P5qbRvnEPiiORGq3-WAF-25" target="P5qbRvnEPiiORGq3-WAF-18">
          <mxGeometry relative="1" as="geometry" />
        </mxCell>
        <mxCell id="P5qbRvnEPiiORGq3-WAF-24" style="edgeStyle=orthogonalEdgeStyle;shape=connector;rounded=0;orthogonalLoop=1;jettySize=auto;html=1;exitX=0.75;exitY=0;exitDx=0;exitDy=0;entryX=0;entryY=0.5;entryDx=0;entryDy=0;labelBackgroundColor=default;strokeColor=default;align=center;verticalAlign=middle;fontFamily=Helvetica;fontSize=11;fontColor=default;endArrow=none;endFill=0;" edge="1" parent="WIyWlLk6GJQsqaUBKTNV-1" source="P5qbRvnEPiiORGq3-WAF-0" target="P5qbRvnEPiiORGq3-WAF-23">
          <mxGeometry relative="1" as="geometry" />
        </mxCell>
        <mxCell id="P5qbRvnEPiiORGq3-WAF-26" style="edgeStyle=orthogonalEdgeStyle;shape=connector;rounded=0;orthogonalLoop=1;jettySize=auto;html=1;exitX=0.5;exitY=1;exitDx=0;exitDy=0;entryX=1;entryY=0.5;entryDx=0;entryDy=0;labelBackgroundColor=default;strokeColor=default;align=center;verticalAlign=middle;fontFamily=Helvetica;fontSize=11;fontColor=default;endArrow=none;endFill=0;" edge="1" parent="WIyWlLk6GJQsqaUBKTNV-1" source="P5qbRvnEPiiORGq3-WAF-0" target="P5qbRvnEPiiORGq3-WAF-25">
          <mxGeometry relative="1" as="geometry" />
        </mxCell>
        <mxCell id="JbxDIjeTM68EFQmrb-wd-1" style="edgeStyle=orthogonalEdgeStyle;rounded=0;orthogonalLoop=1;jettySize=auto;html=1;exitX=0.5;exitY=0;exitDx=0;exitDy=0;entryX=1;entryY=0.5;entryDx=0;entryDy=0;endArrow=none;endFill=0;startArrow=ERmany;startFill=0;" edge="1" parent="WIyWlLk6GJQsqaUBKTNV-1" source="P5qbRvnEPiiORGq3-WAF-0" target="JbxDIjeTM68EFQmrb-wd-0">
          <mxGeometry relative="1" as="geometry" />
        </mxCell>
        <mxCell id="TYDA4_ymSuk67NFvtbZh-36" value="&lt;font style=&quot;font-size: 8px;&quot;&gt;Master&lt;/font&gt;" style="edgeLabel;html=1;align=center;verticalAlign=middle;resizable=0;points=[];fontSize=11;fontFamily=Helvetica;fontColor=default;" connectable="0" vertex="1" parent="JbxDIjeTM68EFQmrb-wd-1">
          <mxGeometry x="0.8582" y="1" relative="1" as="geometry">
            <mxPoint x="-16" y="-10" as="offset" />
          </mxGeometry>
        </mxCell>
        <mxCell id="TYDA4_ymSuk67NFvtbZh-19" style="shape=connector;rounded=0;orthogonalLoop=1;jettySize=auto;html=1;exitX=0;exitY=0.5;exitDx=0;exitDy=0;entryX=1;entryY=1;entryDx=0;entryDy=0;labelBackgroundColor=default;strokeColor=default;align=center;verticalAlign=middle;fontFamily=Helvetica;fontSize=11;fontColor=default;endArrow=none;endFill=0;" edge="1" parent="WIyWlLk6GJQsqaUBKTNV-1" source="P5qbRvnEPiiORGq3-WAF-0" target="TYDA4_ymSuk67NFvtbZh-18">
          <mxGeometry relative="1" as="geometry" />
        </mxCell>
        <mxCell id="TYDA4_ymSuk67NFvtbZh-21" style="edgeStyle=none;shape=connector;rounded=0;orthogonalLoop=1;jettySize=auto;html=1;exitX=0;exitY=0.75;exitDx=0;exitDy=0;entryX=1;entryY=0.5;entryDx=0;entryDy=0;labelBackgroundColor=default;strokeColor=default;align=center;verticalAlign=middle;fontFamily=Helvetica;fontSize=11;fontColor=default;endArrow=none;endFill=0;" edge="1" parent="WIyWlLk6GJQsqaUBKTNV-1" source="P5qbRvnEPiiORGq3-WAF-0" target="TYDA4_ymSuk67NFvtbZh-20">
          <mxGeometry relative="1" as="geometry" />
        </mxCell>
        <mxCell id="P5qbRvnEPiiORGq3-WAF-0" value="&lt;font style=&quot;font-size: 8px;&quot;&gt;Account&lt;/font&gt;" style="rounded=1;whiteSpace=wrap;html=1;" vertex="1" parent="WIyWlLk6GJQsqaUBKTNV-1">
          <mxGeometry x="-135" y="161" width="103" height="26" as="geometry" />
        </mxCell>
        <mxCell id="P5qbRvnEPiiORGq3-WAF-2" value="&lt;font style=&quot;font-size: 8px;&quot;&gt;AcctAdmin&lt;/font&gt;" style="rounded=1;whiteSpace=wrap;html=1;" vertex="1" parent="WIyWlLk6GJQsqaUBKTNV-1">
          <mxGeometry x="-702" y="249" width="64" height="29" as="geometry" />
        </mxCell>
        <mxCell id="P5qbRvnEPiiORGq3-WAF-3" value="&lt;font style=&quot;font-size: 8px;&quot;&gt;Acct_AcctAdmin&lt;/font&gt;" style="rhombus;whiteSpace=wrap;html=1;" vertex="1" parent="WIyWlLk6GJQsqaUBKTNV-1">
          <mxGeometry x="-523" y="244" width="80" height="39" as="geometry" />
        </mxCell>
        <mxCell id="P5qbRvnEPiiORGq3-WAF-5" value="" style="endArrow=none;html=1;rounded=0;exitX=0.25;exitY=1;exitDx=0;exitDy=0;startArrow=ERmany;startFill=0;entryX=1;entryY=0.5;entryDx=0;entryDy=0;edgeStyle=orthogonalEdgeStyle;" edge="1" parent="WIyWlLk6GJQsqaUBKTNV-1" source="P5qbRvnEPiiORGq3-WAF-0" target="P5qbRvnEPiiORGq3-WAF-3">
          <mxGeometry width="50" height="50" relative="1" as="geometry">
            <mxPoint x="90" y="225" as="sourcePoint" />
            <mxPoint x="300" y="165" as="targetPoint" />
          </mxGeometry>
        </mxCell>
        <mxCell id="P5qbRvnEPiiORGq3-WAF-6" value="" style="endArrow=ERmany;html=1;rounded=0;startArrow=none;startFill=0;endFill=0;exitX=0;exitY=0.5;exitDx=0;exitDy=0;entryX=1;entryY=0.5;entryDx=0;entryDy=0;edgeStyle=orthogonalEdgeStyle;" edge="1" parent="WIyWlLk6GJQsqaUBKTNV-1" source="P5qbRvnEPiiORGq3-WAF-3" target="P5qbRvnEPiiORGq3-WAF-2">
          <mxGeometry width="50" height="50" relative="1" as="geometry">
            <mxPoint x="279" y="185" as="sourcePoint" />
            <mxPoint x="124" y="206" as="targetPoint" />
          </mxGeometry>
        </mxCell>
        <mxCell id="P5qbRvnEPiiORGq3-WAF-9" value="&lt;font style=&quot;font-size: 8px;&quot;&gt;Account_Member&lt;/font&gt;" style="rounded=1;whiteSpace=wrap;html=1;" vertex="1" parent="WIyWlLk6GJQsqaUBKTNV-1">
          <mxGeometry x="647" y="-225" width="64" height="26" as="geometry" />
        </mxCell>
        <mxCell id="bqVCNSVhDyANK1hjiUMb-148" style="edgeStyle=none;shape=connector;rounded=0;orthogonalLoop=1;jettySize=auto;html=1;exitX=1;exitY=0.25;exitDx=0;exitDy=0;entryX=0;entryY=0.5;entryDx=0;entryDy=0;labelBackgroundColor=default;strokeColor=default;align=center;verticalAlign=middle;fontFamily=Helvetica;fontSize=11;fontColor=default;endArrow=none;endFill=0;" edge="1" parent="WIyWlLk6GJQsqaUBKTNV-1" source="P5qbRvnEPiiORGq3-WAF-15" target="bqVCNSVhDyANK1hjiUMb-147">
          <mxGeometry relative="1" as="geometry" />
        </mxCell>
        <mxCell id="P5qbRvnEPiiORGq3-WAF-15" value="&lt;font style=&quot;font-size: 8px;&quot;&gt;BillingAccount&lt;/font&gt;" style="rounded=1;whiteSpace=wrap;html=1;" vertex="1" parent="WIyWlLk6GJQsqaUBKTNV-1">
          <mxGeometry x="41" y="-37" width="87" height="26" as="geometry" />
        </mxCell>
        <mxCell id="bqVCNSVhDyANK1hjiUMb-5" style="edgeStyle=none;shape=connector;rounded=0;orthogonalLoop=1;jettySize=auto;html=1;exitX=0;exitY=0.75;exitDx=0;exitDy=0;entryX=1;entryY=0.5;entryDx=0;entryDy=0;labelBackgroundColor=default;strokeColor=default;align=center;verticalAlign=middle;fontFamily=Helvetica;fontSize=11;fontColor=default;endArrow=none;endFill=0;" edge="1" parent="WIyWlLk6GJQsqaUBKTNV-1" source="P5qbRvnEPiiORGq3-WAF-18" target="bqVCNSVhDyANK1hjiUMb-4">
          <mxGeometry relative="1" as="geometry" />
        </mxCell>
        <mxCell id="P5qbRvnEPiiORGq3-WAF-18" value="&lt;font style=&quot;font-size: 8px;&quot;&gt;AccountLegacyAlias&lt;/font&gt;" style="rounded=1;whiteSpace=wrap;html=1;" vertex="1" parent="WIyWlLk6GJQsqaUBKTNV-1">
          <mxGeometry x="-804" y="342.5" width="87" height="26" as="geometry" />
        </mxCell>
        <mxCell id="P5qbRvnEPiiORGq3-WAF-44" style="edgeStyle=orthogonalEdgeStyle;shape=connector;rounded=0;orthogonalLoop=1;jettySize=auto;html=1;exitX=0.5;exitY=1;exitDx=0;exitDy=0;entryX=0.5;entryY=0;entryDx=0;entryDy=0;labelBackgroundColor=default;strokeColor=default;align=center;verticalAlign=middle;fontFamily=Helvetica;fontSize=11;fontColor=default;endArrow=none;endFill=0;" edge="1" parent="WIyWlLk6GJQsqaUBKTNV-1" source="P5qbRvnEPiiORGq3-WAF-21" target="P5qbRvnEPiiORGq3-WAF-43">
          <mxGeometry relative="1" as="geometry" />
        </mxCell>
        <mxCell id="P5qbRvnEPiiORGq3-WAF-21" value="&lt;font style=&quot;font-size: 8px;&quot;&gt;CompanyCode&lt;/font&gt;" style="rounded=1;whiteSpace=wrap;html=1;" vertex="1" parent="WIyWlLk6GJQsqaUBKTNV-1">
          <mxGeometry x="-598" y="853" width="87" height="26" as="geometry" />
        </mxCell>
        <mxCell id="P5qbRvnEPiiORGq3-WAF-23" value="&lt;span style=&quot;font-size: 8px;&quot;&gt;Account-Account_Member&lt;/span&gt;" style="rhombus;whiteSpace=wrap;html=1;" vertex="1" parent="WIyWlLk6GJQsqaUBKTNV-1">
          <mxGeometry x="198" y="-232" width="135" height="39" as="geometry" />
        </mxCell>
        <mxCell id="P5qbRvnEPiiORGq3-WAF-25" value="&lt;span style=&quot;font-size: 8px;&quot;&gt;Account-AccountLegacyAlias&lt;/span&gt;" style="rhombus;whiteSpace=wrap;html=1;" vertex="1" parent="WIyWlLk6GJQsqaUBKTNV-1">
          <mxGeometry x="-642" y="336" width="135" height="39" as="geometry" />
        </mxCell>
        <mxCell id="P5qbRvnEPiiORGq3-WAF-33" style="edgeStyle=orthogonalEdgeStyle;shape=connector;rounded=0;orthogonalLoop=1;jettySize=auto;html=1;exitX=0.5;exitY=1;exitDx=0;exitDy=0;entryX=0.5;entryY=0;entryDx=0;entryDy=0;labelBackgroundColor=default;strokeColor=default;align=center;verticalAlign=middle;fontFamily=Helvetica;fontSize=11;fontColor=default;endArrow=none;endFill=0;" edge="1" parent="WIyWlLk6GJQsqaUBKTNV-1" source="P5qbRvnEPiiORGq3-WAF-27" target="P5qbRvnEPiiORGq3-WAF-21">
          <mxGeometry relative="1" as="geometry" />
        </mxCell>
        <mxCell id="TYDA4_ymSuk67NFvtbZh-2" style="edgeStyle=orthogonalEdgeStyle;rounded=0;orthogonalLoop=1;jettySize=auto;html=1;exitX=0.5;exitY=0;exitDx=0;exitDy=0;entryX=0.75;entryY=1;entryDx=0;entryDy=0;endArrow=ERmany;endFill=0;" edge="1" parent="WIyWlLk6GJQsqaUBKTNV-1" source="P5qbRvnEPiiORGq3-WAF-27" target="P5qbRvnEPiiORGq3-WAF-0">
          <mxGeometry relative="1" as="geometry">
            <Array as="points">
              <mxPoint x="-554" y="381" />
              <mxPoint x="-58" y="381" />
            </Array>
          </mxGeometry>
        </mxCell>
        <mxCell id="P5qbRvnEPiiORGq3-WAF-27" value="&lt;span style=&quot;font-size: 8px;&quot;&gt;Account-CompanyCode&lt;/span&gt;" style="rhombus;whiteSpace=wrap;html=1;" vertex="1" parent="WIyWlLk6GJQsqaUBKTNV-1">
          <mxGeometry x="-622" y="753" width="135" height="39" as="geometry" />
        </mxCell>
        <mxCell id="P5qbRvnEPiiORGq3-WAF-36" style="edgeStyle=orthogonalEdgeStyle;shape=connector;rounded=0;orthogonalLoop=1;jettySize=auto;html=1;exitX=0;exitY=0.5;exitDx=0;exitDy=0;labelBackgroundColor=default;strokeColor=default;align=center;verticalAlign=middle;fontFamily=Helvetica;fontSize=11;fontColor=default;endArrow=ERmany;endFill=0;entryX=1;entryY=0.25;entryDx=0;entryDy=0;" edge="1" parent="WIyWlLk6GJQsqaUBKTNV-1" source="P5qbRvnEPiiORGq3-WAF-34" target="P5qbRvnEPiiORGq3-WAF-0">
          <mxGeometry relative="1" as="geometry">
            <mxPoint x="391" y="328" as="targetPoint" />
          </mxGeometry>
        </mxCell>
        <mxCell id="P5qbRvnEPiiORGq3-WAF-37" style="edgeStyle=orthogonalEdgeStyle;shape=connector;rounded=0;orthogonalLoop=1;jettySize=auto;html=1;exitX=0.5;exitY=0;exitDx=0;exitDy=0;entryX=0.5;entryY=1;entryDx=0;entryDy=0;labelBackgroundColor=default;strokeColor=default;align=center;verticalAlign=middle;fontFamily=Helvetica;fontSize=11;fontColor=default;endArrow=ERmany;endFill=0;" edge="1" parent="WIyWlLk6GJQsqaUBKTNV-1" source="P5qbRvnEPiiORGq3-WAF-34" target="P5qbRvnEPiiORGq3-WAF-15">
          <mxGeometry relative="1" as="geometry" />
        </mxCell>
        <mxCell id="P5qbRvnEPiiORGq3-WAF-34" value="&lt;span style=&quot;font-size: 8px;&quot;&gt;Account_BillingAccount&lt;/span&gt;" style="rhombus;whiteSpace=wrap;html=1;" vertex="1" parent="WIyWlLk6GJQsqaUBKTNV-1">
          <mxGeometry x="17" y="56" width="135" height="39" as="geometry" />
        </mxCell>
        <mxCell id="P5qbRvnEPiiORGq3-WAF-59" style="edgeStyle=orthogonalEdgeStyle;shape=connector;rounded=0;orthogonalLoop=1;jettySize=auto;html=1;exitX=0.5;exitY=1;exitDx=0;exitDy=0;entryX=0;entryY=0.5;entryDx=0;entryDy=0;labelBackgroundColor=default;strokeColor=default;align=center;verticalAlign=middle;fontFamily=Helvetica;fontSize=11;fontColor=default;endArrow=none;endFill=0;" edge="1" parent="WIyWlLk6GJQsqaUBKTNV-1" source="P5qbRvnEPiiORGq3-WAF-38" target="P5qbRvnEPiiORGq3-WAF-58">
          <mxGeometry relative="1" as="geometry" />
        </mxCell>
        <mxCell id="P5qbRvnEPiiORGq3-WAF-38" value="&lt;font style=&quot;font-size: 8px;&quot;&gt;Contract&lt;/font&gt;" style="rounded=1;whiteSpace=wrap;html=1;" vertex="1" parent="WIyWlLk6GJQsqaUBKTNV-1">
          <mxGeometry x="-778" y="1170" width="64" height="28" as="geometry" />
        </mxCell>
        <mxCell id="P5qbRvnEPiiORGq3-WAF-45" style="edgeStyle=orthogonalEdgeStyle;shape=connector;rounded=0;orthogonalLoop=1;jettySize=auto;html=1;exitX=0.5;exitY=1;exitDx=0;exitDy=0;entryX=0.5;entryY=0;entryDx=0;entryDy=0;labelBackgroundColor=default;strokeColor=default;align=center;verticalAlign=middle;fontFamily=Helvetica;fontSize=11;fontColor=default;endArrow=ERmany;endFill=0;" edge="1" parent="WIyWlLk6GJQsqaUBKTNV-1" source="P5qbRvnEPiiORGq3-WAF-43" target="P5qbRvnEPiiORGq3-WAF-38">
          <mxGeometry relative="1" as="geometry" />
        </mxCell>
        <mxCell id="P5qbRvnEPiiORGq3-WAF-43" value="&lt;span style=&quot;font-size: 8px;&quot;&gt;Contract-CompanyCode&lt;/span&gt;" style="rhombus;whiteSpace=wrap;html=1;" vertex="1" parent="WIyWlLk6GJQsqaUBKTNV-1">
          <mxGeometry x="-622" y="1040" width="135" height="39" as="geometry" />
        </mxCell>
        <mxCell id="P5qbRvnEPiiORGq3-WAF-47" value="&lt;font style=&quot;font-size: 8px;&quot;&gt;ManagerContract&lt;/font&gt;" style="rounded=1;whiteSpace=wrap;html=1;" vertex="1" parent="WIyWlLk6GJQsqaUBKTNV-1">
          <mxGeometry x="100" y="385" width="103" height="26" as="geometry" />
        </mxCell>
        <mxCell id="P5qbRvnEPiiORGq3-WAF-50" style="edgeStyle=orthogonalEdgeStyle;shape=connector;rounded=0;orthogonalLoop=1;jettySize=auto;html=1;exitX=0;exitY=0.5;exitDx=0;exitDy=0;entryX=1;entryY=0.75;entryDx=0;entryDy=0;labelBackgroundColor=default;strokeColor=default;align=center;verticalAlign=middle;fontFamily=Helvetica;fontSize=11;fontColor=default;endArrow=ERmany;endFill=0;" edge="1" parent="WIyWlLk6GJQsqaUBKTNV-1" source="P5qbRvnEPiiORGq3-WAF-48" target="P5qbRvnEPiiORGq3-WAF-0">
          <mxGeometry relative="1" as="geometry" />
        </mxCell>
        <mxCell id="P5qbRvnEPiiORGq3-WAF-51" style="edgeStyle=orthogonalEdgeStyle;shape=connector;rounded=0;orthogonalLoop=1;jettySize=auto;html=1;exitX=0.5;exitY=1;exitDx=0;exitDy=0;entryX=0.5;entryY=0;entryDx=0;entryDy=0;labelBackgroundColor=default;strokeColor=default;align=center;verticalAlign=middle;fontFamily=Helvetica;fontSize=11;fontColor=default;endArrow=ERmany;endFill=0;" edge="1" parent="WIyWlLk6GJQsqaUBKTNV-1" source="P5qbRvnEPiiORGq3-WAF-48" target="P5qbRvnEPiiORGq3-WAF-47">
          <mxGeometry relative="1" as="geometry" />
        </mxCell>
        <mxCell id="P5qbRvnEPiiORGq3-WAF-48" value="&lt;span style=&quot;font-size: 8px;&quot;&gt;Account_Associate&lt;/span&gt;" style="rhombus;whiteSpace=wrap;html=1;" vertex="1" parent="WIyWlLk6GJQsqaUBKTNV-1">
          <mxGeometry x="253" y="161" width="135" height="39" as="geometry" />
        </mxCell>
        <mxCell id="P5qbRvnEPiiORGq3-WAF-55" style="edgeStyle=orthogonalEdgeStyle;shape=connector;rounded=0;orthogonalLoop=1;jettySize=auto;html=1;exitX=0.5;exitY=0;exitDx=0;exitDy=0;entryX=0.5;entryY=1;entryDx=0;entryDy=0;labelBackgroundColor=default;strokeColor=default;align=center;verticalAlign=middle;fontFamily=Helvetica;fontSize=11;fontColor=default;endArrow=none;endFill=0;" edge="1" parent="WIyWlLk6GJQsqaUBKTNV-1" source="P5qbRvnEPiiORGq3-WAF-52" target="P5qbRvnEPiiORGq3-WAF-54">
          <mxGeometry relative="1" as="geometry" />
        </mxCell>
        <mxCell id="bqVCNSVhDyANK1hjiUMb-112" style="edgeStyle=none;shape=connector;rounded=0;orthogonalLoop=1;jettySize=auto;html=1;exitX=0.25;exitY=1;exitDx=0;exitDy=0;entryX=0.5;entryY=0;entryDx=0;entryDy=0;labelBackgroundColor=default;strokeColor=default;align=center;verticalAlign=middle;fontFamily=Helvetica;fontSize=11;fontColor=default;endArrow=none;endFill=0;" edge="1" parent="WIyWlLk6GJQsqaUBKTNV-1" source="P5qbRvnEPiiORGq3-WAF-52" target="bqVCNSVhDyANK1hjiUMb-111">
          <mxGeometry relative="1" as="geometry" />
        </mxCell>
        <mxCell id="P5qbRvnEPiiORGq3-WAF-52" value="&lt;font style=&quot;font-size: 8px;&quot;&gt;Associate&lt;/font&gt;" style="rounded=1;whiteSpace=wrap;html=1;" vertex="1" parent="WIyWlLk6GJQsqaUBKTNV-1">
          <mxGeometry x="451" y="670" width="103" height="26" as="geometry" />
        </mxCell>
        <mxCell id="TYDA4_ymSuk67NFvtbZh-15" style="edgeStyle=orthogonalEdgeStyle;shape=connector;rounded=0;orthogonalLoop=1;jettySize=auto;html=1;exitX=0.5;exitY=0;exitDx=0;exitDy=0;entryX=1;entryY=0.5;entryDx=0;entryDy=0;labelBackgroundColor=default;strokeColor=default;align=center;verticalAlign=middle;fontFamily=Helvetica;fontSize=11;fontColor=default;endArrow=ERmany;endFill=0;" edge="1" parent="WIyWlLk6GJQsqaUBKTNV-1" source="P5qbRvnEPiiORGq3-WAF-54" target="P5qbRvnEPiiORGq3-WAF-47">
          <mxGeometry relative="1" as="geometry" />
        </mxCell>
        <mxCell id="P5qbRvnEPiiORGq3-WAF-54" value="&lt;span style=&quot;font-size: 8px;&quot;&gt;StateCoordinators&lt;/span&gt;" style="rhombus;whiteSpace=wrap;html=1;" vertex="1" parent="WIyWlLk6GJQsqaUBKTNV-1">
          <mxGeometry x="435" y="486" width="135" height="39" as="geometry" />
        </mxCell>
        <mxCell id="P5qbRvnEPiiORGq3-WAF-63" style="edgeStyle=orthogonalEdgeStyle;shape=connector;rounded=0;orthogonalLoop=1;jettySize=auto;html=1;exitX=0.5;exitY=1;exitDx=0;exitDy=0;entryX=0.5;entryY=0;entryDx=0;entryDy=0;labelBackgroundColor=default;strokeColor=default;align=center;verticalAlign=middle;fontFamily=Helvetica;fontSize=11;fontColor=default;endArrow=none;endFill=0;" edge="1" parent="WIyWlLk6GJQsqaUBKTNV-1" source="P5qbRvnEPiiORGq3-WAF-57" target="P5qbRvnEPiiORGq3-WAF-61">
          <mxGeometry relative="1" as="geometry" />
        </mxCell>
        <mxCell id="P5qbRvnEPiiORGq3-WAF-57" value="&lt;font style=&quot;font-size: 8px;&quot;&gt;ContractBenefit&lt;/font&gt;" style="rounded=1;whiteSpace=wrap;html=1;" vertex="1" parent="WIyWlLk6GJQsqaUBKTNV-1">
          <mxGeometry x="-629.5" y="1547" width="64" height="28" as="geometry" />
        </mxCell>
        <mxCell id="P5qbRvnEPiiORGq3-WAF-60" style="edgeStyle=orthogonalEdgeStyle;shape=connector;rounded=0;orthogonalLoop=1;jettySize=auto;html=1;exitX=0.5;exitY=1;exitDx=0;exitDy=0;entryX=0.5;entryY=0;entryDx=0;entryDy=0;labelBackgroundColor=default;strokeColor=default;align=center;verticalAlign=middle;fontFamily=Helvetica;fontSize=11;fontColor=default;endArrow=ERmany;endFill=0;" edge="1" parent="WIyWlLk6GJQsqaUBKTNV-1" source="P5qbRvnEPiiORGq3-WAF-58" target="P5qbRvnEPiiORGq3-WAF-57">
          <mxGeometry relative="1" as="geometry" />
        </mxCell>
        <mxCell id="P5qbRvnEPiiORGq3-WAF-58" value="&lt;span style=&quot;font-size: 8px;&quot;&gt;Contract-ContractBenefit&lt;/span&gt;" style="rhombus;whiteSpace=wrap;html=1;" vertex="1" parent="WIyWlLk6GJQsqaUBKTNV-1">
          <mxGeometry x="-665" y="1447" width="135" height="39" as="geometry" />
        </mxCell>
        <mxCell id="P5qbRvnEPiiORGq3-WAF-64" style="edgeStyle=orthogonalEdgeStyle;shape=connector;rounded=0;orthogonalLoop=1;jettySize=auto;html=1;exitX=1;exitY=0.5;exitDx=0;exitDy=0;labelBackgroundColor=default;strokeColor=default;align=center;verticalAlign=middle;fontFamily=Helvetica;fontSize=11;fontColor=default;endArrow=ERmany;endFill=0;entryX=0.25;entryY=1;entryDx=0;entryDy=0;" edge="1" parent="WIyWlLk6GJQsqaUBKTNV-1" source="P5qbRvnEPiiORGq3-WAF-61" target="P5qbRvnEPiiORGq3-WAF-62">
          <mxGeometry relative="1" as="geometry" />
        </mxCell>
        <mxCell id="P5qbRvnEPiiORGq3-WAF-61" value="&lt;span style=&quot;font-size: 8px;&quot;&gt;ContractPremium-ContractBenefit&lt;/span&gt;" style="rhombus;whiteSpace=wrap;html=1;" vertex="1" parent="WIyWlLk6GJQsqaUBKTNV-1">
          <mxGeometry x="-675" y="1699" width="155" height="39" as="geometry" />
        </mxCell>
        <mxCell id="P5qbRvnEPiiORGq3-WAF-62" value="&lt;font style=&quot;font-size: 8px;&quot;&gt;ContractPremium&lt;/font&gt;" style="rounded=1;whiteSpace=wrap;html=1;" vertex="1" parent="WIyWlLk6GJQsqaUBKTNV-1">
          <mxGeometry x="-338" y="1197" width="64" height="28" as="geometry" />
        </mxCell>
        <mxCell id="P5qbRvnEPiiORGq3-WAF-67" style="edgeStyle=orthogonalEdgeStyle;shape=connector;rounded=0;orthogonalLoop=1;jettySize=auto;html=1;exitX=0.5;exitY=1;exitDx=0;exitDy=0;entryX=0.25;entryY=0;entryDx=0;entryDy=0;labelBackgroundColor=default;strokeColor=default;align=center;verticalAlign=middle;fontFamily=Helvetica;fontSize=11;fontColor=default;endArrow=ERmany;endFill=0;" edge="1" parent="WIyWlLk6GJQsqaUBKTNV-1" source="P5qbRvnEPiiORGq3-WAF-65" target="P5qbRvnEPiiORGq3-WAF-62">
          <mxGeometry relative="1" as="geometry" />
        </mxCell>
        <mxCell id="TYDA4_ymSuk67NFvtbZh-14" style="edgeStyle=orthogonalEdgeStyle;shape=connector;rounded=0;orthogonalLoop=1;jettySize=auto;html=1;exitX=0.5;exitY=0;exitDx=0;exitDy=0;entryX=0;entryY=0.5;entryDx=0;entryDy=0;labelBackgroundColor=default;strokeColor=default;align=center;verticalAlign=middle;fontFamily=Helvetica;fontSize=11;fontColor=default;endArrow=ERmany;endFill=0;" edge="1" parent="WIyWlLk6GJQsqaUBKTNV-1" source="P5qbRvnEPiiORGq3-WAF-65" target="P5qbRvnEPiiORGq3-WAF-47">
          <mxGeometry relative="1" as="geometry" />
        </mxCell>
        <mxCell id="P5qbRvnEPiiORGq3-WAF-65" value="&lt;span style=&quot;font-size: 8px;&quot;&gt;Premium_MgmtContract&lt;/span&gt;" style="rhombus;whiteSpace=wrap;html=1;" vertex="1" parent="WIyWlLk6GJQsqaUBKTNV-1">
          <mxGeometry x="-390" y="660" width="135" height="39" as="geometry" />
        </mxCell>
        <mxCell id="P5qbRvnEPiiORGq3-WAF-69" style="edgeStyle=orthogonalEdgeStyle;shape=connector;rounded=0;orthogonalLoop=1;jettySize=auto;html=1;exitX=0.5;exitY=1;exitDx=0;exitDy=0;entryX=0.5;entryY=0;entryDx=0;entryDy=0;labelBackgroundColor=default;strokeColor=default;align=center;verticalAlign=middle;fontFamily=Helvetica;fontSize=11;fontColor=default;endArrow=ERmany;endFill=0;" edge="1" parent="WIyWlLk6GJQsqaUBKTNV-1" source="P5qbRvnEPiiORGq3-WAF-68" target="P5qbRvnEPiiORGq3-WAF-62">
          <mxGeometry relative="1" as="geometry">
            <Array as="points">
              <mxPoint x="503" y="1108" />
              <mxPoint x="-306" y="1108" />
            </Array>
          </mxGeometry>
        </mxCell>
        <mxCell id="P5qbRvnEPiiORGq3-WAF-70" style="edgeStyle=orthogonalEdgeStyle;shape=connector;rounded=0;orthogonalLoop=1;jettySize=auto;html=1;exitX=0.5;exitY=0;exitDx=0;exitDy=0;entryX=0.5;entryY=1;entryDx=0;entryDy=0;labelBackgroundColor=default;strokeColor=default;align=center;verticalAlign=middle;fontFamily=Helvetica;fontSize=11;fontColor=default;endArrow=ERmany;endFill=0;" edge="1" parent="WIyWlLk6GJQsqaUBKTNV-1" source="P5qbRvnEPiiORGq3-WAF-68" target="P5qbRvnEPiiORGq3-WAF-52">
          <mxGeometry relative="1" as="geometry" />
        </mxCell>
        <mxCell id="P5qbRvnEPiiORGq3-WAF-68" value="&lt;span style=&quot;font-size: 8px;&quot;&gt;CoordPosition_ProductionAsset&lt;/span&gt;" style="rhombus;whiteSpace=wrap;html=1;" vertex="1" parent="WIyWlLk6GJQsqaUBKTNV-1">
          <mxGeometry x="435" y="895" width="135" height="39" as="geometry" />
        </mxCell>
        <mxCell id="TYDA4_ymSuk67NFvtbZh-5" style="edgeStyle=orthogonalEdgeStyle;rounded=0;orthogonalLoop=1;jettySize=auto;html=1;exitX=0.5;exitY=0;exitDx=0;exitDy=0;entryX=1;entryY=0.5;entryDx=0;entryDy=0;endArrow=none;endFill=0;" edge="1" parent="WIyWlLk6GJQsqaUBKTNV-1" source="P5qbRvnEPiiORGq3-WAF-72" target="P5qbRvnEPiiORGq3-WAF-73">
          <mxGeometry relative="1" as="geometry" />
        </mxCell>
        <mxCell id="P5qbRvnEPiiORGq3-WAF-72" value="&lt;font style=&quot;font-size: 8px;&quot;&gt;Customer&lt;/font&gt;" style="rounded=1;whiteSpace=wrap;html=1;" vertex="1" parent="WIyWlLk6GJQsqaUBKTNV-1">
          <mxGeometry x="730" y="271" width="64" height="26" as="geometry" />
        </mxCell>
        <mxCell id="P5qbRvnEPiiORGq3-WAF-74" style="edgeStyle=orthogonalEdgeStyle;shape=connector;rounded=0;orthogonalLoop=1;jettySize=auto;html=1;exitX=0;exitY=0.5;exitDx=0;exitDy=0;entryX=1;entryY=0.5;entryDx=0;entryDy=0;labelBackgroundColor=default;strokeColor=default;align=center;verticalAlign=middle;fontFamily=Helvetica;fontSize=11;fontColor=default;endArrow=ERmany;endFill=0;" edge="1" parent="WIyWlLk6GJQsqaUBKTNV-1" source="P5qbRvnEPiiORGq3-WAF-73" target="P5qbRvnEPiiORGq3-WAF-9">
          <mxGeometry relative="1" as="geometry" />
        </mxCell>
        <mxCell id="P5qbRvnEPiiORGq3-WAF-73" value="&lt;span style=&quot;font-size: 8px;&quot;&gt;Account_Member-Customer&lt;/span&gt;" style="rhombus;whiteSpace=wrap;html=1;" vertex="1" parent="WIyWlLk6GJQsqaUBKTNV-1">
          <mxGeometry x="809" y="-136" width="135" height="39" as="geometry" />
        </mxCell>
        <mxCell id="P5qbRvnEPiiORGq3-WAF-78" style="edgeStyle=orthogonalEdgeStyle;shape=connector;rounded=0;orthogonalLoop=1;jettySize=auto;html=1;exitX=0.5;exitY=0;exitDx=0;exitDy=0;entryX=0.25;entryY=1;entryDx=0;entryDy=0;labelBackgroundColor=default;strokeColor=default;align=center;verticalAlign=middle;fontFamily=Helvetica;fontSize=11;fontColor=default;endArrow=ERmany;endFill=0;" edge="1" parent="WIyWlLk6GJQsqaUBKTNV-1" source="P5qbRvnEPiiORGq3-WAF-76" target="P5qbRvnEPiiORGq3-WAF-72">
          <mxGeometry relative="1" as="geometry" />
        </mxCell>
        <mxCell id="TYDA4_ymSuk67NFvtbZh-10" style="edgeStyle=orthogonalEdgeStyle;shape=connector;rounded=0;orthogonalLoop=1;jettySize=auto;html=1;exitX=0.5;exitY=1;exitDx=0;exitDy=0;entryX=0.75;entryY=0;entryDx=0;entryDy=0;labelBackgroundColor=default;strokeColor=default;align=center;verticalAlign=middle;fontFamily=Helvetica;fontSize=11;fontColor=default;endArrow=ERmany;endFill=0;" edge="1" parent="WIyWlLk6GJQsqaUBKTNV-1" source="P5qbRvnEPiiORGq3-WAF-76" target="P5qbRvnEPiiORGq3-WAF-62">
          <mxGeometry relative="1" as="geometry">
            <Array as="points">
              <mxPoint x="746" y="1172" />
              <mxPoint x="-290" y="1172" />
            </Array>
          </mxGeometry>
        </mxCell>
        <mxCell id="P5qbRvnEPiiORGq3-WAF-76" value="&lt;span style=&quot;font-size: 8px;&quot;&gt;BenefitForBenefittingParty&lt;/span&gt;" style="rhombus;whiteSpace=wrap;html=1;" vertex="1" parent="WIyWlLk6GJQsqaUBKTNV-1">
          <mxGeometry x="678" y="478" width="135" height="39" as="geometry" />
        </mxCell>
        <mxCell id="JbxDIjeTM68EFQmrb-wd-8" style="edgeStyle=orthogonalEdgeStyle;shape=connector;rounded=0;orthogonalLoop=1;jettySize=auto;html=1;exitX=0.5;exitY=0;exitDx=0;exitDy=0;entryX=0.5;entryY=1;entryDx=0;entryDy=0;labelBackgroundColor=default;strokeColor=default;align=center;verticalAlign=middle;fontFamily=Helvetica;fontSize=11;fontColor=default;endArrow=ERmany;endFill=0;" edge="1" parent="WIyWlLk6GJQsqaUBKTNV-1" source="P5qbRvnEPiiORGq3-WAF-81" target="P5qbRvnEPiiORGq3-WAF-72">
          <mxGeometry relative="1" as="geometry">
            <Array as="points">
              <mxPoint x="939" y="413" />
              <mxPoint x="762" y="413" />
            </Array>
          </mxGeometry>
        </mxCell>
        <mxCell id="TYDA4_ymSuk67NFvtbZh-9" style="edgeStyle=orthogonalEdgeStyle;rounded=0;orthogonalLoop=1;jettySize=auto;html=1;exitX=0.5;exitY=1;exitDx=0;exitDy=0;entryX=0.75;entryY=1;entryDx=0;entryDy=0;endArrow=ERmany;endFill=0;" edge="1" parent="WIyWlLk6GJQsqaUBKTNV-1" source="P5qbRvnEPiiORGq3-WAF-81" target="P5qbRvnEPiiORGq3-WAF-38">
          <mxGeometry relative="1" as="geometry">
            <Array as="points">
              <mxPoint x="941" y="1414" />
              <mxPoint x="-730" y="1414" />
            </Array>
          </mxGeometry>
        </mxCell>
        <mxCell id="P5qbRvnEPiiORGq3-WAF-81" value="&lt;span style=&quot;font-size: 8px;&quot;&gt;ContractingPartyInRole&lt;/span&gt;" style="rhombus;whiteSpace=wrap;html=1;" vertex="1" parent="WIyWlLk6GJQsqaUBKTNV-1">
          <mxGeometry x="873" y="478" width="135" height="39" as="geometry" />
        </mxCell>
        <mxCell id="JbxDIjeTM68EFQmrb-wd-2" style="edgeStyle=orthogonalEdgeStyle;shape=connector;rounded=0;orthogonalLoop=1;jettySize=auto;html=1;exitX=0;exitY=0.5;exitDx=0;exitDy=0;entryX=0.25;entryY=0;entryDx=0;entryDy=0;labelBackgroundColor=default;strokeColor=default;align=center;verticalAlign=middle;fontFamily=Helvetica;fontSize=11;fontColor=default;endArrow=ERmany;endFill=0;" edge="1" parent="WIyWlLk6GJQsqaUBKTNV-1" source="JbxDIjeTM68EFQmrb-wd-0" target="P5qbRvnEPiiORGq3-WAF-0">
          <mxGeometry relative="1" as="geometry">
            <Array as="points">
              <mxPoint x="-345" y="-141" />
              <mxPoint x="-345" y="-75" />
              <mxPoint x="-109" y="-75" />
            </Array>
          </mxGeometry>
        </mxCell>
        <mxCell id="TYDA4_ymSuk67NFvtbZh-37" value="&lt;font style=&quot;font-size: 8px;&quot;&gt;Member&lt;/font&gt;" style="edgeLabel;html=1;align=center;verticalAlign=middle;resizable=0;points=[];fontSize=11;fontFamily=Helvetica;fontColor=default;" connectable="0" vertex="1" parent="JbxDIjeTM68EFQmrb-wd-2">
          <mxGeometry x="-0.9531" y="1" relative="1" as="geometry">
            <mxPoint x="-4" y="-10" as="offset" />
          </mxGeometry>
        </mxCell>
        <mxCell id="JbxDIjeTM68EFQmrb-wd-0" value="&lt;span style=&quot;font-size: 8px;&quot;&gt;Account-Account&lt;/span&gt;" style="rhombus;whiteSpace=wrap;html=1;" vertex="1" parent="WIyWlLk6GJQsqaUBKTNV-1">
          <mxGeometry x="-312" y="-160" width="135" height="39" as="geometry" />
        </mxCell>
        <mxCell id="JbxDIjeTM68EFQmrb-wd-4" style="edgeStyle=orthogonalEdgeStyle;shape=connector;rounded=0;orthogonalLoop=1;jettySize=auto;html=1;exitX=0.5;exitY=0;exitDx=0;exitDy=0;entryX=0.75;entryY=0;entryDx=0;entryDy=0;labelBackgroundColor=default;strokeColor=default;align=center;verticalAlign=middle;fontFamily=Helvetica;fontSize=11;fontColor=default;endArrow=ERmany;endFill=0;" edge="1" parent="WIyWlLk6GJQsqaUBKTNV-1" source="JbxDIjeTM68EFQmrb-wd-3" target="P5qbRvnEPiiORGq3-WAF-52">
          <mxGeometry relative="1" as="geometry" />
        </mxCell>
        <mxCell id="bqVCNSVhDyANK1hjiUMb-171" value="&lt;font style=&quot;font-size: 6px;&quot;&gt;Broker&lt;/font&gt;" style="edgeLabel;html=1;align=center;verticalAlign=middle;resizable=0;points=[];fontSize=11;fontFamily=Helvetica;fontColor=default;" connectable="0" vertex="1" parent="JbxDIjeTM68EFQmrb-wd-4">
          <mxGeometry x="-0.9155" relative="1" as="geometry">
            <mxPoint x="10" y="1" as="offset" />
          </mxGeometry>
        </mxCell>
        <mxCell id="JbxDIjeTM68EFQmrb-wd-5" style="edgeStyle=orthogonalEdgeStyle;shape=connector;rounded=0;orthogonalLoop=1;jettySize=auto;html=1;exitX=0.5;exitY=1;exitDx=0;exitDy=0;entryX=0.75;entryY=1;entryDx=0;entryDy=0;labelBackgroundColor=default;strokeColor=default;align=center;verticalAlign=middle;fontFamily=Helvetica;fontSize=11;fontColor=default;endArrow=ERmany;endFill=0;" edge="1" parent="WIyWlLk6GJQsqaUBKTNV-1" source="JbxDIjeTM68EFQmrb-wd-3" target="P5qbRvnEPiiORGq3-WAF-52">
          <mxGeometry relative="1" as="geometry" />
        </mxCell>
        <mxCell id="JbxDIjeTM68EFQmrb-wd-3" value="&lt;span style=&quot;font-size: 8px;&quot;&gt;Associate-Associate&lt;/span&gt;" style="rhombus;whiteSpace=wrap;html=1;" vertex="1" parent="WIyWlLk6GJQsqaUBKTNV-1">
          <mxGeometry x="582" y="591" width="135" height="39" as="geometry" />
        </mxCell>
        <mxCell id="JbxDIjeTM68EFQmrb-wd-7" style="edgeStyle=orthogonalEdgeStyle;shape=connector;rounded=0;orthogonalLoop=1;jettySize=auto;html=1;exitX=0.5;exitY=0;exitDx=0;exitDy=0;entryX=0.75;entryY=0;entryDx=0;entryDy=0;labelBackgroundColor=default;strokeColor=default;align=center;verticalAlign=middle;fontFamily=Helvetica;fontSize=11;fontColor=default;endArrow=ERmany;endFill=0;" edge="1" parent="WIyWlLk6GJQsqaUBKTNV-1" source="JbxDIjeTM68EFQmrb-wd-6" target="P5qbRvnEPiiORGq3-WAF-72">
          <mxGeometry relative="1" as="geometry" />
        </mxCell>
        <mxCell id="JbxDIjeTM68EFQmrb-wd-9" style="edgeStyle=orthogonalEdgeStyle;shape=connector;rounded=0;orthogonalLoop=1;jettySize=auto;html=1;exitX=0.5;exitY=1;exitDx=0;exitDy=0;entryX=0.75;entryY=1;entryDx=0;entryDy=0;labelBackgroundColor=default;strokeColor=default;align=center;verticalAlign=middle;fontFamily=Helvetica;fontSize=11;fontColor=default;endArrow=ERmany;endFill=0;" edge="1" parent="WIyWlLk6GJQsqaUBKTNV-1" source="JbxDIjeTM68EFQmrb-wd-6" target="P5qbRvnEPiiORGq3-WAF-72">
          <mxGeometry relative="1" as="geometry" />
        </mxCell>
        <mxCell id="JbxDIjeTM68EFQmrb-wd-6" value="&lt;span style=&quot;font-size: 8px;&quot;&gt;Customer-Customer&lt;/span&gt;" style="rhombus;whiteSpace=wrap;html=1;" vertex="1" parent="WIyWlLk6GJQsqaUBKTNV-1">
          <mxGeometry x="848" y="264.5" width="135" height="39" as="geometry" />
        </mxCell>
        <mxCell id="TYDA4_ymSuk67NFvtbZh-16" value="&lt;font style=&quot;font-size: 6px;&quot;&gt;AccountName&lt;/font&gt;" style="ellipse;whiteSpace=wrap;html=1;fontFamily=Helvetica;fontSize=11;fontColor=default;" vertex="1" parent="WIyWlLk6GJQsqaUBKTNV-1">
          <mxGeometry x="-225" y="89" width="56" height="18" as="geometry" />
        </mxCell>
        <mxCell id="TYDA4_ymSuk67NFvtbZh-18" value="&lt;font style=&quot;font-size: 6px;&quot;&gt;AccountName2&lt;/font&gt;" style="ellipse;whiteSpace=wrap;html=1;fontFamily=Helvetica;fontSize=11;fontColor=default;" vertex="1" parent="WIyWlLk6GJQsqaUBKTNV-1">
          <mxGeometry x="-244" y="115" width="56" height="18" as="geometry" />
        </mxCell>
        <mxCell id="TYDA4_ymSuk67NFvtbZh-20" value="&lt;font style=&quot;font-size: 6px;&quot;&gt;Location&lt;/font&gt;" style="ellipse;whiteSpace=wrap;html=1;fontFamily=Helvetica;fontSize=11;fontColor=default;" vertex="1" parent="WIyWlLk6GJQsqaUBKTNV-1">
          <mxGeometry x="-260" y="159" width="56" height="18" as="geometry" />
        </mxCell>
        <mxCell id="TYDA4_ymSuk67NFvtbZh-29" style="edgeStyle=none;shape=connector;rounded=0;orthogonalLoop=1;jettySize=auto;html=1;exitX=1;exitY=1;exitDx=0;exitDy=0;entryX=0;entryY=0;entryDx=0;entryDy=0;labelBackgroundColor=default;strokeColor=default;align=center;verticalAlign=middle;fontFamily=Helvetica;fontSize=11;fontColor=default;endArrow=none;endFill=0;" edge="1" parent="WIyWlLk6GJQsqaUBKTNV-1" source="TYDA4_ymSuk67NFvtbZh-22" target="TYDA4_ymSuk67NFvtbZh-20">
          <mxGeometry relative="1" as="geometry" />
        </mxCell>
        <mxCell id="TYDA4_ymSuk67NFvtbZh-22" value="&lt;font style=&quot;font-size: 6px;&quot;&gt;Address2&lt;/font&gt;" style="ellipse;whiteSpace=wrap;html=1;fontFamily=Helvetica;fontSize=11;fontColor=default;" vertex="1" parent="WIyWlLk6GJQsqaUBKTNV-1">
          <mxGeometry x="-363" y="125" width="56" height="18" as="geometry" />
        </mxCell>
        <mxCell id="TYDA4_ymSuk67NFvtbZh-27" style="edgeStyle=none;shape=connector;rounded=0;orthogonalLoop=1;jettySize=auto;html=1;exitX=1;exitY=1;exitDx=0;exitDy=0;entryX=0.5;entryY=0;entryDx=0;entryDy=0;labelBackgroundColor=default;strokeColor=default;align=center;verticalAlign=middle;fontFamily=Helvetica;fontSize=11;fontColor=default;endArrow=none;endFill=0;" edge="1" parent="WIyWlLk6GJQsqaUBKTNV-1" source="TYDA4_ymSuk67NFvtbZh-23" target="TYDA4_ymSuk67NFvtbZh-20">
          <mxGeometry relative="1" as="geometry" />
        </mxCell>
        <mxCell id="TYDA4_ymSuk67NFvtbZh-23" value="&lt;font style=&quot;font-size: 6px;&quot;&gt;Address1&lt;/font&gt;" style="ellipse;whiteSpace=wrap;html=1;fontFamily=Helvetica;fontSize=11;fontColor=default;" vertex="1" parent="WIyWlLk6GJQsqaUBKTNV-1">
          <mxGeometry x="-329" y="102" width="56" height="18" as="geometry" />
        </mxCell>
        <mxCell id="TYDA4_ymSuk67NFvtbZh-30" style="edgeStyle=none;shape=connector;rounded=0;orthogonalLoop=1;jettySize=auto;html=1;exitX=1;exitY=0.5;exitDx=0;exitDy=0;entryX=0;entryY=0.5;entryDx=0;entryDy=0;labelBackgroundColor=default;strokeColor=default;align=center;verticalAlign=middle;fontFamily=Helvetica;fontSize=11;fontColor=default;endArrow=none;endFill=0;" edge="1" parent="WIyWlLk6GJQsqaUBKTNV-1" source="TYDA4_ymSuk67NFvtbZh-24" target="TYDA4_ymSuk67NFvtbZh-20">
          <mxGeometry relative="1" as="geometry" />
        </mxCell>
        <mxCell id="TYDA4_ymSuk67NFvtbZh-24" value="&lt;font style=&quot;font-size: 6px;&quot;&gt;City&lt;/font&gt;" style="ellipse;whiteSpace=wrap;html=1;fontFamily=Helvetica;fontSize=11;fontColor=default;" vertex="1" parent="WIyWlLk6GJQsqaUBKTNV-1">
          <mxGeometry x="-368" y="158" width="56" height="18" as="geometry" />
        </mxCell>
        <mxCell id="TYDA4_ymSuk67NFvtbZh-31" style="edgeStyle=none;shape=connector;rounded=0;orthogonalLoop=1;jettySize=auto;html=1;exitX=1;exitY=0.5;exitDx=0;exitDy=0;entryX=0;entryY=1;entryDx=0;entryDy=0;labelBackgroundColor=default;strokeColor=default;align=center;verticalAlign=middle;fontFamily=Helvetica;fontSize=11;fontColor=default;endArrow=none;endFill=0;" edge="1" parent="WIyWlLk6GJQsqaUBKTNV-1" source="TYDA4_ymSuk67NFvtbZh-25" target="TYDA4_ymSuk67NFvtbZh-20">
          <mxGeometry relative="1" as="geometry" />
        </mxCell>
        <mxCell id="TYDA4_ymSuk67NFvtbZh-25" value="&lt;font style=&quot;font-size: 6px;&quot;&gt;State&lt;/font&gt;" style="ellipse;whiteSpace=wrap;html=1;fontFamily=Helvetica;fontSize=11;fontColor=default;" vertex="1" parent="WIyWlLk6GJQsqaUBKTNV-1">
          <mxGeometry x="-357" y="197" width="56" height="18" as="geometry" />
        </mxCell>
        <mxCell id="TYDA4_ymSuk67NFvtbZh-32" style="edgeStyle=none;shape=connector;rounded=0;orthogonalLoop=1;jettySize=auto;html=1;exitX=1;exitY=0;exitDx=0;exitDy=0;entryX=0.5;entryY=1;entryDx=0;entryDy=0;labelBackgroundColor=default;strokeColor=default;align=center;verticalAlign=middle;fontFamily=Helvetica;fontSize=11;fontColor=default;endArrow=none;endFill=0;" edge="1" parent="WIyWlLk6GJQsqaUBKTNV-1" source="TYDA4_ymSuk67NFvtbZh-26" target="TYDA4_ymSuk67NFvtbZh-20">
          <mxGeometry relative="1" as="geometry" />
        </mxCell>
        <mxCell id="TYDA4_ymSuk67NFvtbZh-26" value="&lt;span style=&quot;font-size: 6px;&quot;&gt;ZIP&lt;br&gt;&lt;/span&gt;" style="ellipse;whiteSpace=wrap;html=1;fontFamily=Helvetica;fontSize=11;fontColor=default;" vertex="1" parent="WIyWlLk6GJQsqaUBKTNV-1">
          <mxGeometry x="-290" y="210" width="56" height="18" as="geometry" />
        </mxCell>
        <mxCell id="TYDA4_ymSuk67NFvtbZh-33" style="edgeStyle=none;shape=connector;rounded=0;orthogonalLoop=1;jettySize=auto;html=1;exitX=0.5;exitY=1;exitDx=0;exitDy=0;entryX=-0.008;entryY=0.112;entryDx=0;entryDy=0;entryPerimeter=0;labelBackgroundColor=default;strokeColor=default;align=center;verticalAlign=middle;fontFamily=Helvetica;fontSize=11;fontColor=default;endArrow=none;endFill=0;" edge="1" parent="WIyWlLk6GJQsqaUBKTNV-1" source="TYDA4_ymSuk67NFvtbZh-16" target="P5qbRvnEPiiORGq3-WAF-0">
          <mxGeometry relative="1" as="geometry" />
        </mxCell>
        <mxCell id="bqVCNSVhDyANK1hjiUMb-2" style="rounded=0;orthogonalLoop=1;jettySize=auto;html=1;exitX=1;exitY=0.5;exitDx=0;exitDy=0;entryX=0;entryY=0.25;entryDx=0;entryDy=0;endArrow=none;endFill=0;" edge="1" parent="WIyWlLk6GJQsqaUBKTNV-1" source="bqVCNSVhDyANK1hjiUMb-0" target="P5qbRvnEPiiORGq3-WAF-18">
          <mxGeometry relative="1" as="geometry" />
        </mxCell>
        <mxCell id="bqVCNSVhDyANK1hjiUMb-0" value="&lt;font style=&quot;font-size: 6px;&quot;&gt;AliasSouce&lt;/font&gt;" style="ellipse;whiteSpace=wrap;html=1;fontFamily=Helvetica;fontSize=11;fontColor=default;" vertex="1" parent="WIyWlLk6GJQsqaUBKTNV-1">
          <mxGeometry x="-960" y="302" width="56" height="18" as="geometry" />
        </mxCell>
        <mxCell id="bqVCNSVhDyANK1hjiUMb-3" style="edgeStyle=none;shape=connector;rounded=0;orthogonalLoop=1;jettySize=auto;html=1;exitX=1;exitY=0.5;exitDx=0;exitDy=0;entryX=0;entryY=0.5;entryDx=0;entryDy=0;labelBackgroundColor=default;strokeColor=default;align=center;verticalAlign=middle;fontFamily=Helvetica;fontSize=11;fontColor=default;endArrow=none;endFill=0;" edge="1" parent="WIyWlLk6GJQsqaUBKTNV-1" source="bqVCNSVhDyANK1hjiUMb-1" target="P5qbRvnEPiiORGq3-WAF-18">
          <mxGeometry relative="1" as="geometry" />
        </mxCell>
        <mxCell id="bqVCNSVhDyANK1hjiUMb-1" value="&lt;span style=&quot;font-size: 6px;&quot;&gt;&lt;u&gt;AliasID&lt;/u&gt;&lt;/span&gt;" style="ellipse;whiteSpace=wrap;html=1;fontFamily=Helvetica;fontSize=11;fontColor=default;" vertex="1" parent="WIyWlLk6GJQsqaUBKTNV-1">
          <mxGeometry x="-949" y="333" width="56" height="18" as="geometry" />
        </mxCell>
        <mxCell id="bqVCNSVhDyANK1hjiUMb-4" value="&lt;span style=&quot;font-size: 6px;&quot;&gt;CompanyCode&lt;/span&gt;" style="ellipse;whiteSpace=wrap;html=1;fontFamily=Helvetica;fontSize=11;fontColor=default;" vertex="1" parent="WIyWlLk6GJQsqaUBKTNV-1">
          <mxGeometry x="-945" y="361" width="56" height="18" as="geometry" />
        </mxCell>
        <mxCell id="bqVCNSVhDyANK1hjiUMb-7" style="edgeStyle=none;shape=connector;rounded=0;orthogonalLoop=1;jettySize=auto;html=1;exitX=1;exitY=0.5;exitDx=0;exitDy=0;entryX=0;entryY=0;entryDx=0;entryDy=0;labelBackgroundColor=default;strokeColor=default;align=center;verticalAlign=middle;fontFamily=Helvetica;fontSize=11;fontColor=default;endArrow=none;endFill=0;" edge="1" parent="WIyWlLk6GJQsqaUBKTNV-1" source="bqVCNSVhDyANK1hjiUMb-6" target="P5qbRvnEPiiORGq3-WAF-18">
          <mxGeometry relative="1" as="geometry" />
        </mxCell>
        <mxCell id="bqVCNSVhDyANK1hjiUMb-6" value="&lt;span style=&quot;font-size: 6px;&quot;&gt;AliasName&lt;/span&gt;" style="ellipse;whiteSpace=wrap;html=1;fontFamily=Helvetica;fontSize=11;fontColor=default;" vertex="1" parent="WIyWlLk6GJQsqaUBKTNV-1">
          <mxGeometry x="-946" y="273" width="56" height="18" as="geometry" />
        </mxCell>
        <mxCell id="bqVCNSVhDyANK1hjiUMb-9" style="edgeStyle=none;shape=connector;rounded=0;orthogonalLoop=1;jettySize=auto;html=1;exitX=1;exitY=0.5;exitDx=0;exitDy=0;entryX=0;entryY=1;entryDx=0;entryDy=0;labelBackgroundColor=default;strokeColor=default;align=center;verticalAlign=middle;fontFamily=Helvetica;fontSize=11;fontColor=default;endArrow=none;endFill=0;" edge="1" parent="WIyWlLk6GJQsqaUBKTNV-1" source="bqVCNSVhDyANK1hjiUMb-8" target="P5qbRvnEPiiORGq3-WAF-18">
          <mxGeometry relative="1" as="geometry" />
        </mxCell>
        <mxCell id="bqVCNSVhDyANK1hjiUMb-8" value="&lt;span style=&quot;font-size: 6px;&quot;&gt;Location&lt;/span&gt;" style="ellipse;whiteSpace=wrap;html=1;fontFamily=Helvetica;fontSize=11;fontColor=default;" vertex="1" parent="WIyWlLk6GJQsqaUBKTNV-1">
          <mxGeometry x="-933" y="413" width="56" height="18" as="geometry" />
        </mxCell>
        <mxCell id="bqVCNSVhDyANK1hjiUMb-15" style="edgeStyle=none;shape=connector;rounded=0;orthogonalLoop=1;jettySize=auto;html=1;exitX=1;exitY=0.5;exitDx=0;exitDy=0;entryX=0.5;entryY=0;entryDx=0;entryDy=0;labelBackgroundColor=default;strokeColor=default;align=center;verticalAlign=middle;fontFamily=Helvetica;fontSize=11;fontColor=default;endArrow=none;endFill=0;" edge="1" parent="WIyWlLk6GJQsqaUBKTNV-1" source="bqVCNSVhDyANK1hjiUMb-10" target="bqVCNSVhDyANK1hjiUMb-8">
          <mxGeometry relative="1" as="geometry" />
        </mxCell>
        <mxCell id="bqVCNSVhDyANK1hjiUMb-10" value="&lt;span style=&quot;font-size: 6px;&quot;&gt;Address1&lt;/span&gt;" style="ellipse;whiteSpace=wrap;html=1;fontFamily=Helvetica;fontSize=11;fontColor=default;" vertex="1" parent="WIyWlLk6GJQsqaUBKTNV-1">
          <mxGeometry x="-1027" y="370" width="56" height="18" as="geometry" />
        </mxCell>
        <mxCell id="bqVCNSVhDyANK1hjiUMb-16" style="edgeStyle=none;shape=connector;rounded=0;orthogonalLoop=1;jettySize=auto;html=1;exitX=1;exitY=0.5;exitDx=0;exitDy=0;entryX=0;entryY=0;entryDx=0;entryDy=0;labelBackgroundColor=default;strokeColor=default;align=center;verticalAlign=middle;fontFamily=Helvetica;fontSize=11;fontColor=default;endArrow=none;endFill=0;" edge="1" parent="WIyWlLk6GJQsqaUBKTNV-1" source="bqVCNSVhDyANK1hjiUMb-11" target="bqVCNSVhDyANK1hjiUMb-8">
          <mxGeometry relative="1" as="geometry" />
        </mxCell>
        <mxCell id="bqVCNSVhDyANK1hjiUMb-11" value="&lt;span style=&quot;font-size: 6px;&quot;&gt;Address2&lt;/span&gt;" style="ellipse;whiteSpace=wrap;html=1;fontFamily=Helvetica;fontSize=11;fontColor=default;" vertex="1" parent="WIyWlLk6GJQsqaUBKTNV-1">
          <mxGeometry x="-1027" y="395" width="56" height="18" as="geometry" />
        </mxCell>
        <mxCell id="bqVCNSVhDyANK1hjiUMb-17" style="edgeStyle=none;shape=connector;rounded=0;orthogonalLoop=1;jettySize=auto;html=1;exitX=1;exitY=0.5;exitDx=0;exitDy=0;entryX=0;entryY=0.5;entryDx=0;entryDy=0;labelBackgroundColor=default;strokeColor=default;align=center;verticalAlign=middle;fontFamily=Helvetica;fontSize=11;fontColor=default;endArrow=none;endFill=0;" edge="1" parent="WIyWlLk6GJQsqaUBKTNV-1" source="bqVCNSVhDyANK1hjiUMb-12" target="bqVCNSVhDyANK1hjiUMb-8">
          <mxGeometry relative="1" as="geometry" />
        </mxCell>
        <mxCell id="bqVCNSVhDyANK1hjiUMb-12" value="&lt;span style=&quot;font-size: 6px;&quot;&gt;City&lt;/span&gt;" style="ellipse;whiteSpace=wrap;html=1;fontFamily=Helvetica;fontSize=11;fontColor=default;" vertex="1" parent="WIyWlLk6GJQsqaUBKTNV-1">
          <mxGeometry x="-1027" y="424" width="56" height="18" as="geometry" />
        </mxCell>
        <mxCell id="bqVCNSVhDyANK1hjiUMb-21" style="edgeStyle=none;shape=connector;rounded=0;orthogonalLoop=1;jettySize=auto;html=1;exitX=1;exitY=0.5;exitDx=0;exitDy=0;entryX=0;entryY=1;entryDx=0;entryDy=0;labelBackgroundColor=default;strokeColor=default;align=center;verticalAlign=middle;fontFamily=Helvetica;fontSize=11;fontColor=default;endArrow=none;endFill=0;" edge="1" parent="WIyWlLk6GJQsqaUBKTNV-1" source="bqVCNSVhDyANK1hjiUMb-13" target="bqVCNSVhDyANK1hjiUMb-8">
          <mxGeometry relative="1" as="geometry" />
        </mxCell>
        <mxCell id="bqVCNSVhDyANK1hjiUMb-13" value="&lt;span style=&quot;font-size: 6px;&quot;&gt;State&lt;/span&gt;" style="ellipse;whiteSpace=wrap;html=1;fontFamily=Helvetica;fontSize=11;fontColor=default;" vertex="1" parent="WIyWlLk6GJQsqaUBKTNV-1">
          <mxGeometry x="-1027" y="450" width="56" height="18" as="geometry" />
        </mxCell>
        <mxCell id="bqVCNSVhDyANK1hjiUMb-14" value="&lt;span style=&quot;font-size: 6px;&quot;&gt;ZIP&lt;br&gt;&lt;/span&gt;" style="ellipse;whiteSpace=wrap;html=1;fontFamily=Helvetica;fontSize=11;fontColor=default;" vertex="1" parent="WIyWlLk6GJQsqaUBKTNV-1">
          <mxGeometry x="-1027" y="478" width="56" height="18" as="geometry" />
        </mxCell>
        <mxCell id="bqVCNSVhDyANK1hjiUMb-22" style="edgeStyle=none;shape=connector;rounded=0;orthogonalLoop=1;jettySize=auto;html=1;exitX=1;exitY=0.5;exitDx=0;exitDy=0;entryX=0.5;entryY=1;entryDx=0;entryDy=0;labelBackgroundColor=default;strokeColor=default;align=center;verticalAlign=middle;fontFamily=Helvetica;fontSize=11;fontColor=default;endArrow=none;endFill=0;" edge="1" parent="WIyWlLk6GJQsqaUBKTNV-1" source="bqVCNSVhDyANK1hjiUMb-14" target="bqVCNSVhDyANK1hjiUMb-8">
          <mxGeometry relative="1" as="geometry" />
        </mxCell>
        <mxCell id="bqVCNSVhDyANK1hjiUMb-23" style="edgeStyle=none;shape=connector;rounded=0;orthogonalLoop=1;jettySize=auto;html=1;exitX=0.5;exitY=1;exitDx=0;exitDy=0;labelBackgroundColor=default;strokeColor=default;align=center;verticalAlign=middle;fontFamily=Helvetica;fontSize=11;fontColor=default;endArrow=none;endFill=0;" edge="1" parent="WIyWlLk6GJQsqaUBKTNV-1" source="TYDA4_ymSuk67NFvtbZh-18" target="TYDA4_ymSuk67NFvtbZh-18">
          <mxGeometry relative="1" as="geometry" />
        </mxCell>
        <mxCell id="bqVCNSVhDyANK1hjiUMb-24" value="&lt;font style=&quot;font-size: 6px;&quot;&gt;&lt;u&gt;Account_id&lt;/u&gt;&lt;/font&gt;" style="ellipse;whiteSpace=wrap;html=1;fontFamily=Helvetica;fontSize=11;fontColor=default;" vertex="1" parent="WIyWlLk6GJQsqaUBKTNV-1">
          <mxGeometry x="-179" y="72" width="56" height="18" as="geometry" />
        </mxCell>
        <mxCell id="bqVCNSVhDyANK1hjiUMb-25" style="edgeStyle=none;shape=connector;rounded=0;orthogonalLoop=1;jettySize=auto;html=1;exitX=0.5;exitY=1;exitDx=0;exitDy=0;entryX=0.059;entryY=0.038;entryDx=0;entryDy=0;entryPerimeter=0;labelBackgroundColor=default;strokeColor=default;align=center;verticalAlign=middle;fontFamily=Helvetica;fontSize=11;fontColor=default;endArrow=none;endFill=0;" edge="1" parent="WIyWlLk6GJQsqaUBKTNV-1" source="bqVCNSVhDyANK1hjiUMb-24" target="P5qbRvnEPiiORGq3-WAF-0">
          <mxGeometry relative="1" as="geometry" />
        </mxCell>
        <mxCell id="bqVCNSVhDyANK1hjiUMb-26" value="&lt;span style=&quot;font-size: 6px;&quot;&gt;Account_id&lt;/span&gt;" style="ellipse;whiteSpace=wrap;html=1;fontFamily=Helvetica;fontSize=11;fontColor=default;" vertex="1" parent="WIyWlLk6GJQsqaUBKTNV-1">
          <mxGeometry x="-902" y="255" width="56" height="18" as="geometry" />
        </mxCell>
        <mxCell id="bqVCNSVhDyANK1hjiUMb-27" style="edgeStyle=none;shape=connector;rounded=0;orthogonalLoop=1;jettySize=auto;html=1;exitX=1;exitY=1;exitDx=0;exitDy=0;entryX=0.25;entryY=0;entryDx=0;entryDy=0;labelBackgroundColor=default;strokeColor=default;align=center;verticalAlign=middle;fontFamily=Helvetica;fontSize=11;fontColor=default;endArrow=none;endFill=0;" edge="1" parent="WIyWlLk6GJQsqaUBKTNV-1" source="bqVCNSVhDyANK1hjiUMb-26" target="P5qbRvnEPiiORGq3-WAF-18">
          <mxGeometry relative="1" as="geometry" />
        </mxCell>
        <mxCell id="bqVCNSVhDyANK1hjiUMb-28" value="&lt;span style=&quot;font-size: 6px;&quot;&gt;&lt;u&gt;AcctAdmin_id&lt;/u&gt;&lt;/span&gt;" style="ellipse;whiteSpace=wrap;html=1;fontFamily=Helvetica;fontSize=11;fontColor=default;" vertex="1" parent="WIyWlLk6GJQsqaUBKTNV-1">
          <mxGeometry x="-592" y="216" width="56" height="18" as="geometry" />
        </mxCell>
        <mxCell id="bqVCNSVhDyANK1hjiUMb-31" value="" style="edgeStyle=none;shape=connector;rounded=0;orthogonalLoop=1;jettySize=auto;html=1;labelBackgroundColor=default;strokeColor=default;align=center;verticalAlign=middle;fontFamily=Helvetica;fontSize=11;fontColor=default;endArrow=none;endFill=0;" edge="1" parent="WIyWlLk6GJQsqaUBKTNV-1" source="bqVCNSVhDyANK1hjiUMb-30" target="P5qbRvnEPiiORGq3-WAF-72">
          <mxGeometry relative="1" as="geometry" />
        </mxCell>
        <mxCell id="bqVCNSVhDyANK1hjiUMb-30" value="&lt;font style=&quot;font-size: 6px;&quot;&gt;&lt;u&gt;Customer_id&lt;/u&gt;&lt;/font&gt;" style="ellipse;whiteSpace=wrap;html=1;fontFamily=Helvetica;fontSize=11;fontColor=default;" vertex="1" parent="WIyWlLk6GJQsqaUBKTNV-1">
          <mxGeometry x="704" y="222" width="56" height="18" as="geometry" />
        </mxCell>
        <mxCell id="bqVCNSVhDyANK1hjiUMb-33" value="" style="edgeStyle=none;shape=connector;rounded=0;orthogonalLoop=1;jettySize=auto;html=1;labelBackgroundColor=default;strokeColor=default;align=center;verticalAlign=middle;fontFamily=Helvetica;fontSize=11;fontColor=default;endArrow=none;endFill=0;" edge="1" parent="WIyWlLk6GJQsqaUBKTNV-1" source="bqVCNSVhDyANK1hjiUMb-32" target="P5qbRvnEPiiORGq3-WAF-72">
          <mxGeometry relative="1" as="geometry" />
        </mxCell>
        <mxCell id="bqVCNSVhDyANK1hjiUMb-32" value="&lt;font style=&quot;font-size: 6px;&quot;&gt;CusLastName&lt;/font&gt;" style="ellipse;whiteSpace=wrap;html=1;fontFamily=Helvetica;fontSize=11;fontColor=default;" vertex="1" parent="WIyWlLk6GJQsqaUBKTNV-1">
          <mxGeometry x="646" y="204" width="56" height="18" as="geometry" />
        </mxCell>
        <mxCell id="bqVCNSVhDyANK1hjiUMb-35" value="" style="edgeStyle=none;shape=connector;rounded=0;orthogonalLoop=1;jettySize=auto;html=1;labelBackgroundColor=default;strokeColor=default;align=center;verticalAlign=middle;fontFamily=Helvetica;fontSize=11;fontColor=default;endArrow=none;endFill=0;" edge="1" parent="WIyWlLk6GJQsqaUBKTNV-1" source="bqVCNSVhDyANK1hjiUMb-34" target="P5qbRvnEPiiORGq3-WAF-72">
          <mxGeometry relative="1" as="geometry" />
        </mxCell>
        <mxCell id="bqVCNSVhDyANK1hjiUMb-34" value="&lt;font style=&quot;font-size: 6px;&quot;&gt;CusFirstName&lt;/font&gt;" style="ellipse;whiteSpace=wrap;html=1;fontFamily=Helvetica;fontSize=11;fontColor=default;" vertex="1" parent="WIyWlLk6GJQsqaUBKTNV-1">
          <mxGeometry x="586" y="193" width="56" height="18" as="geometry" />
        </mxCell>
        <mxCell id="bqVCNSVhDyANK1hjiUMb-37" value="" style="edgeStyle=none;shape=connector;rounded=0;orthogonalLoop=1;jettySize=auto;html=1;labelBackgroundColor=default;strokeColor=default;align=center;verticalAlign=middle;fontFamily=Helvetica;fontSize=11;fontColor=default;endArrow=none;endFill=0;" edge="1" parent="WIyWlLk6GJQsqaUBKTNV-1" source="bqVCNSVhDyANK1hjiUMb-36" target="P5qbRvnEPiiORGq3-WAF-72">
          <mxGeometry relative="1" as="geometry" />
        </mxCell>
        <mxCell id="bqVCNSVhDyANK1hjiUMb-36" value="&lt;font style=&quot;font-size: 6px;&quot;&gt;CusMiddleInitial&lt;/font&gt;" style="ellipse;whiteSpace=wrap;html=1;fontFamily=Helvetica;fontSize=11;fontColor=default;" vertex="1" parent="WIyWlLk6GJQsqaUBKTNV-1">
          <mxGeometry x="552" y="216" width="56" height="18" as="geometry" />
        </mxCell>
        <mxCell id="bqVCNSVhDyANK1hjiUMb-39" value="" style="edgeStyle=none;shape=connector;rounded=0;orthogonalLoop=1;jettySize=auto;html=1;labelBackgroundColor=default;strokeColor=default;align=center;verticalAlign=middle;fontFamily=Helvetica;fontSize=11;fontColor=default;endArrow=none;endFill=0;" edge="1" parent="WIyWlLk6GJQsqaUBKTNV-1" source="bqVCNSVhDyANK1hjiUMb-38" target="P5qbRvnEPiiORGq3-WAF-72">
          <mxGeometry relative="1" as="geometry" />
        </mxCell>
        <mxCell id="bqVCNSVhDyANK1hjiUMb-38" value="&lt;font style=&quot;font-size: 6px;&quot;&gt;CusDOB&lt;/font&gt;" style="ellipse;whiteSpace=wrap;html=1;fontFamily=Helvetica;fontSize=11;fontColor=default;" vertex="1" parent="WIyWlLk6GJQsqaUBKTNV-1">
          <mxGeometry x="536" y="250" width="56" height="18" as="geometry" />
        </mxCell>
        <mxCell id="bqVCNSVhDyANK1hjiUMb-40" value="&lt;font style=&quot;font-size: 6px;&quot;&gt;Gender&lt;/font&gt;" style="ellipse;whiteSpace=wrap;html=1;fontFamily=Helvetica;fontSize=11;fontColor=default;" vertex="1" parent="WIyWlLk6GJQsqaUBKTNV-1">
          <mxGeometry x="537" y="288" width="56" height="18" as="geometry" />
        </mxCell>
        <mxCell id="bqVCNSVhDyANK1hjiUMb-41" style="edgeStyle=none;shape=connector;rounded=0;orthogonalLoop=1;jettySize=auto;html=1;exitX=1;exitY=0.5;exitDx=0;exitDy=0;entryX=0;entryY=0.75;entryDx=0;entryDy=0;labelBackgroundColor=default;strokeColor=default;align=center;verticalAlign=middle;fontFamily=Helvetica;fontSize=11;fontColor=default;endArrow=none;endFill=0;" edge="1" parent="WIyWlLk6GJQsqaUBKTNV-1" source="bqVCNSVhDyANK1hjiUMb-40" target="P5qbRvnEPiiORGq3-WAF-72">
          <mxGeometry relative="1" as="geometry" />
        </mxCell>
        <mxCell id="bqVCNSVhDyANK1hjiUMb-42" value="&lt;font style=&quot;font-size: 6px;&quot;&gt;SSN_TIN&lt;/font&gt;" style="ellipse;whiteSpace=wrap;html=1;fontFamily=Helvetica;fontSize=11;fontColor=default;" vertex="1" parent="WIyWlLk6GJQsqaUBKTNV-1">
          <mxGeometry x="551" y="316" width="56" height="18" as="geometry" />
        </mxCell>
        <mxCell id="bqVCNSVhDyANK1hjiUMb-43" style="edgeStyle=none;shape=connector;rounded=0;orthogonalLoop=1;jettySize=auto;html=1;exitX=1;exitY=0.5;exitDx=0;exitDy=0;entryX=0.156;entryY=1;entryDx=0;entryDy=0;entryPerimeter=0;labelBackgroundColor=default;strokeColor=default;align=center;verticalAlign=middle;fontFamily=Helvetica;fontSize=11;fontColor=default;endArrow=none;endFill=0;" edge="1" parent="WIyWlLk6GJQsqaUBKTNV-1" source="bqVCNSVhDyANK1hjiUMb-42" target="P5qbRvnEPiiORGq3-WAF-72">
          <mxGeometry relative="1" as="geometry" />
        </mxCell>
        <mxCell id="bqVCNSVhDyANK1hjiUMb-45" value="" style="edgeStyle=none;shape=connector;rounded=0;orthogonalLoop=1;jettySize=auto;html=1;labelBackgroundColor=default;strokeColor=default;align=center;verticalAlign=middle;fontFamily=Helvetica;fontSize=11;fontColor=default;endArrow=none;endFill=0;" edge="1" parent="WIyWlLk6GJQsqaUBKTNV-1" source="bqVCNSVhDyANK1hjiUMb-44" target="P5qbRvnEPiiORGq3-WAF-15">
          <mxGeometry relative="1" as="geometry" />
        </mxCell>
        <mxCell id="bqVCNSVhDyANK1hjiUMb-44" value="&lt;span style=&quot;font-size: 6px;&quot;&gt;&lt;u&gt;BillingAccount_id&lt;/u&gt;&lt;/span&gt;" style="ellipse;whiteSpace=wrap;html=1;fontFamily=Helvetica;fontSize=11;fontColor=default;" vertex="1" parent="WIyWlLk6GJQsqaUBKTNV-1">
          <mxGeometry x="151" y="-104" width="56" height="18" as="geometry" />
        </mxCell>
        <mxCell id="bqVCNSVhDyANK1hjiUMb-47" value="" style="edgeStyle=none;shape=connector;rounded=0;orthogonalLoop=1;jettySize=auto;html=1;labelBackgroundColor=default;strokeColor=default;align=center;verticalAlign=middle;fontFamily=Helvetica;fontSize=11;fontColor=default;endArrow=none;endFill=0;" edge="1" parent="WIyWlLk6GJQsqaUBKTNV-1" source="bqVCNSVhDyANK1hjiUMb-46" target="P5qbRvnEPiiORGq3-WAF-21">
          <mxGeometry relative="1" as="geometry" />
        </mxCell>
        <mxCell id="bqVCNSVhDyANK1hjiUMb-46" value="&lt;span style=&quot;font-size: 6px;&quot;&gt;&lt;u&gt;CompanyCode&lt;/u&gt;&lt;/span&gt;" style="ellipse;whiteSpace=wrap;html=1;fontFamily=Helvetica;fontSize=11;fontColor=default;" vertex="1" parent="WIyWlLk6GJQsqaUBKTNV-1">
          <mxGeometry x="-695" y="857" width="56" height="18" as="geometry" />
        </mxCell>
        <mxCell id="bqVCNSVhDyANK1hjiUMb-49" value="" style="edgeStyle=none;shape=connector;rounded=0;orthogonalLoop=1;jettySize=auto;html=1;labelBackgroundColor=default;strokeColor=default;align=center;verticalAlign=middle;fontFamily=Helvetica;fontSize=11;fontColor=default;endArrow=none;endFill=0;" edge="1" parent="WIyWlLk6GJQsqaUBKTNV-1" source="bqVCNSVhDyANK1hjiUMb-48" target="P5qbRvnEPiiORGq3-WAF-21">
          <mxGeometry relative="1" as="geometry" />
        </mxCell>
        <mxCell id="bqVCNSVhDyANK1hjiUMb-48" value="&lt;span style=&quot;font-size: 6px;&quot;&gt;CompanyName&lt;/span&gt;" style="ellipse;whiteSpace=wrap;html=1;fontFamily=Helvetica;fontSize=11;fontColor=default;" vertex="1" parent="WIyWlLk6GJQsqaUBKTNV-1">
          <mxGeometry x="-694" y="886" width="56" height="18" as="geometry" />
        </mxCell>
        <mxCell id="bqVCNSVhDyANK1hjiUMb-51" value="" style="edgeStyle=none;shape=connector;rounded=0;orthogonalLoop=1;jettySize=auto;html=1;labelBackgroundColor=default;strokeColor=default;align=center;verticalAlign=middle;fontFamily=Helvetica;fontSize=11;fontColor=default;endArrow=none;endFill=0;" edge="1" parent="WIyWlLk6GJQsqaUBKTNV-1" source="bqVCNSVhDyANK1hjiUMb-50" target="P5qbRvnEPiiORGq3-WAF-21">
          <mxGeometry relative="1" as="geometry" />
        </mxCell>
        <mxCell id="bqVCNSVhDyANK1hjiUMb-50" value="&lt;span style=&quot;font-size: 6px;&quot;&gt;LegacyCompanyNo&lt;/span&gt;" style="ellipse;whiteSpace=wrap;html=1;fontFamily=Helvetica;fontSize=11;fontColor=default;" vertex="1" parent="WIyWlLk6GJQsqaUBKTNV-1">
          <mxGeometry x="-702" y="826" width="63" height="18" as="geometry" />
        </mxCell>
        <mxCell id="bqVCNSVhDyANK1hjiUMb-53" value="" style="edgeStyle=none;shape=connector;rounded=0;orthogonalLoop=1;jettySize=auto;html=1;labelBackgroundColor=default;strokeColor=default;align=center;verticalAlign=middle;fontFamily=Helvetica;fontSize=11;fontColor=default;endArrow=none;endFill=0;" edge="1" parent="WIyWlLk6GJQsqaUBKTNV-1" source="bqVCNSVhDyANK1hjiUMb-52" target="P5qbRvnEPiiORGq3-WAF-52">
          <mxGeometry relative="1" as="geometry" />
        </mxCell>
        <mxCell id="bqVCNSVhDyANK1hjiUMb-52" value="&lt;span style=&quot;font-size: 6px;&quot;&gt;&lt;u&gt;Associate_id&lt;/u&gt;&lt;/span&gt;" style="ellipse;whiteSpace=wrap;html=1;fontFamily=Helvetica;fontSize=11;fontColor=default;" vertex="1" parent="WIyWlLk6GJQsqaUBKTNV-1">
          <mxGeometry x="387" y="613" width="63" height="18" as="geometry" />
        </mxCell>
        <mxCell id="bqVCNSVhDyANK1hjiUMb-55" value="" style="edgeStyle=none;shape=connector;rounded=0;orthogonalLoop=1;jettySize=auto;html=1;labelBackgroundColor=default;strokeColor=default;align=center;verticalAlign=middle;fontFamily=Helvetica;fontSize=11;fontColor=default;endArrow=none;endFill=0;" edge="1" parent="WIyWlLk6GJQsqaUBKTNV-1" source="bqVCNSVhDyANK1hjiUMb-54" target="P5qbRvnEPiiORGq3-WAF-47">
          <mxGeometry relative="1" as="geometry" />
        </mxCell>
        <mxCell id="bqVCNSVhDyANK1hjiUMb-54" value="&lt;span style=&quot;font-size: 6px;&quot;&gt;&lt;u&gt;SitCode&lt;/u&gt;&lt;/span&gt;" style="ellipse;whiteSpace=wrap;html=1;fontFamily=Helvetica;fontSize=11;fontColor=default;" vertex="1" parent="WIyWlLk6GJQsqaUBKTNV-1">
          <mxGeometry x="-18" y="444" width="63" height="18" as="geometry" />
        </mxCell>
        <mxCell id="bqVCNSVhDyANK1hjiUMb-57" value="" style="edgeStyle=none;shape=connector;rounded=0;orthogonalLoop=1;jettySize=auto;html=1;labelBackgroundColor=default;strokeColor=default;align=center;verticalAlign=middle;fontFamily=Helvetica;fontSize=11;fontColor=default;endArrow=none;endFill=0;" edge="1" parent="WIyWlLk6GJQsqaUBKTNV-1" source="bqVCNSVhDyANK1hjiUMb-56" target="P5qbRvnEPiiORGq3-WAF-47">
          <mxGeometry relative="1" as="geometry" />
        </mxCell>
        <mxCell id="bqVCNSVhDyANK1hjiUMb-56" value="&lt;span style=&quot;font-size: 6px;&quot;&gt;IssueDate&lt;/span&gt;" style="ellipse;whiteSpace=wrap;html=1;fontFamily=Helvetica;fontSize=11;fontColor=default;" vertex="1" parent="WIyWlLk6GJQsqaUBKTNV-1">
          <mxGeometry x="-3" y="473" width="63" height="18" as="geometry" />
        </mxCell>
        <mxCell id="bqVCNSVhDyANK1hjiUMb-59" value="" style="edgeStyle=none;shape=connector;rounded=0;orthogonalLoop=1;jettySize=auto;html=1;labelBackgroundColor=default;strokeColor=default;align=center;verticalAlign=middle;fontFamily=Helvetica;fontSize=11;fontColor=default;endArrow=none;endFill=0;" edge="1" parent="WIyWlLk6GJQsqaUBKTNV-1" source="bqVCNSVhDyANK1hjiUMb-58" target="P5qbRvnEPiiORGq3-WAF-47">
          <mxGeometry relative="1" as="geometry" />
        </mxCell>
        <mxCell id="bqVCNSVhDyANK1hjiUMb-58" value="&lt;span style=&quot;font-size: 6px;&quot;&gt;ContractType&lt;/span&gt;" style="ellipse;whiteSpace=wrap;html=1;fontFamily=Helvetica;fontSize=11;fontColor=default;" vertex="1" parent="WIyWlLk6GJQsqaUBKTNV-1">
          <mxGeometry x="45" y="496.5" width="63" height="18" as="geometry" />
        </mxCell>
        <mxCell id="bqVCNSVhDyANK1hjiUMb-61" value="" style="edgeStyle=none;shape=connector;rounded=0;orthogonalLoop=1;jettySize=auto;html=1;labelBackgroundColor=default;strokeColor=default;align=center;verticalAlign=middle;fontFamily=Helvetica;fontSize=11;fontColor=default;endArrow=none;endFill=0;" edge="1" parent="WIyWlLk6GJQsqaUBKTNV-1" source="bqVCNSVhDyANK1hjiUMb-60" target="P5qbRvnEPiiORGq3-WAF-47">
          <mxGeometry relative="1" as="geometry" />
        </mxCell>
        <mxCell id="bqVCNSVhDyANK1hjiUMb-60" value="&lt;span style=&quot;font-size: 6px;&quot;&gt;ContractSignDate&lt;/span&gt;" style="ellipse;whiteSpace=wrap;html=1;fontFamily=Helvetica;fontSize=11;fontColor=default;" vertex="1" parent="WIyWlLk6GJQsqaUBKTNV-1">
          <mxGeometry x="121" y="503" width="63" height="18" as="geometry" />
        </mxCell>
        <mxCell id="bqVCNSVhDyANK1hjiUMb-62" value="&lt;span style=&quot;font-size: 6px;&quot;&gt;ContractProcessDate&lt;/span&gt;" style="ellipse;whiteSpace=wrap;html=1;fontFamily=Helvetica;fontSize=11;fontColor=default;" vertex="1" parent="WIyWlLk6GJQsqaUBKTNV-1">
          <mxGeometry x="195" y="495" width="63" height="18" as="geometry" />
        </mxCell>
        <mxCell id="bqVCNSVhDyANK1hjiUMb-64" style="edgeStyle=none;shape=connector;rounded=0;orthogonalLoop=1;jettySize=auto;html=1;exitX=0.5;exitY=0;exitDx=0;exitDy=0;entryX=0.651;entryY=1.016;entryDx=0;entryDy=0;labelBackgroundColor=default;strokeColor=default;align=center;verticalAlign=middle;fontFamily=Helvetica;fontSize=11;fontColor=default;endArrow=none;endFill=0;entryPerimeter=0;" edge="1" parent="WIyWlLk6GJQsqaUBKTNV-1" source="bqVCNSVhDyANK1hjiUMb-62" target="P5qbRvnEPiiORGq3-WAF-47">
          <mxGeometry relative="1" as="geometry" />
        </mxCell>
        <mxCell id="bqVCNSVhDyANK1hjiUMb-66" value="" style="edgeStyle=none;shape=connector;rounded=0;orthogonalLoop=1;jettySize=auto;html=1;labelBackgroundColor=default;strokeColor=default;align=center;verticalAlign=middle;fontFamily=Helvetica;fontSize=11;fontColor=default;endArrow=none;endFill=0;entryX=0.75;entryY=1;entryDx=0;entryDy=0;" edge="1" parent="WIyWlLk6GJQsqaUBKTNV-1" source="bqVCNSVhDyANK1hjiUMb-65" target="P5qbRvnEPiiORGq3-WAF-47">
          <mxGeometry relative="1" as="geometry" />
        </mxCell>
        <mxCell id="bqVCNSVhDyANK1hjiUMb-65" value="&lt;span style=&quot;font-size: 6px;&quot;&gt;EndDate&lt;/span&gt;" style="ellipse;whiteSpace=wrap;html=1;fontFamily=Helvetica;fontSize=11;fontColor=default;" vertex="1" parent="WIyWlLk6GJQsqaUBKTNV-1">
          <mxGeometry x="255" y="480" width="63" height="18" as="geometry" />
        </mxCell>
        <mxCell id="bqVCNSVhDyANK1hjiUMb-68" value="" style="edgeStyle=none;shape=connector;rounded=0;orthogonalLoop=1;jettySize=auto;html=1;labelBackgroundColor=default;strokeColor=default;align=center;verticalAlign=middle;fontFamily=Helvetica;fontSize=11;fontColor=default;endArrow=none;endFill=0;" edge="1" parent="WIyWlLk6GJQsqaUBKTNV-1" source="bqVCNSVhDyANK1hjiUMb-67" target="P5qbRvnEPiiORGq3-WAF-38">
          <mxGeometry relative="1" as="geometry" />
        </mxCell>
        <mxCell id="bqVCNSVhDyANK1hjiUMb-67" value="&lt;span style=&quot;font-size: 6px;&quot;&gt;&lt;u&gt;ContractNumber&lt;/u&gt;&lt;/span&gt;" style="ellipse;whiteSpace=wrap;html=1;fontFamily=Helvetica;fontSize=11;fontColor=default;" vertex="1" parent="WIyWlLk6GJQsqaUBKTNV-1">
          <mxGeometry x="-624" y="1132" width="56" height="18" as="geometry" />
        </mxCell>
        <mxCell id="bqVCNSVhDyANK1hjiUMb-70" value="" style="edgeStyle=none;shape=connector;rounded=0;orthogonalLoop=1;jettySize=auto;html=1;labelBackgroundColor=default;strokeColor=default;align=center;verticalAlign=middle;fontFamily=Helvetica;fontSize=11;fontColor=default;endArrow=none;endFill=0;" edge="1" parent="WIyWlLk6GJQsqaUBKTNV-1" source="bqVCNSVhDyANK1hjiUMb-69" target="P5qbRvnEPiiORGq3-WAF-38">
          <mxGeometry relative="1" as="geometry" />
        </mxCell>
        <mxCell id="bqVCNSVhDyANK1hjiUMb-69" value="&lt;span style=&quot;font-size: 6px;&quot;&gt;ActicityStatus&lt;/span&gt;" style="ellipse;whiteSpace=wrap;html=1;fontFamily=Helvetica;fontSize=11;fontColor=default;" vertex="1" parent="WIyWlLk6GJQsqaUBKTNV-1">
          <mxGeometry x="-604" y="1151" width="56" height="18" as="geometry" />
        </mxCell>
        <mxCell id="bqVCNSVhDyANK1hjiUMb-73" value="" style="edgeStyle=none;shape=connector;rounded=0;orthogonalLoop=1;jettySize=auto;html=1;labelBackgroundColor=default;strokeColor=default;align=center;verticalAlign=middle;fontFamily=Helvetica;fontSize=11;fontColor=default;endArrow=none;endFill=0;" edge="1" parent="WIyWlLk6GJQsqaUBKTNV-1" source="bqVCNSVhDyANK1hjiUMb-72" target="P5qbRvnEPiiORGq3-WAF-38">
          <mxGeometry relative="1" as="geometry" />
        </mxCell>
        <mxCell id="bqVCNSVhDyANK1hjiUMb-72" value="&lt;span style=&quot;font-size: 6px;&quot;&gt;ActivityStatusDate&lt;/span&gt;" style="ellipse;whiteSpace=wrap;html=1;fontFamily=Helvetica;fontSize=11;fontColor=default;" vertex="1" parent="WIyWlLk6GJQsqaUBKTNV-1">
          <mxGeometry x="-589" y="1171" width="56" height="18" as="geometry" />
        </mxCell>
        <mxCell id="bqVCNSVhDyANK1hjiUMb-75" value="" style="edgeStyle=none;shape=connector;rounded=0;orthogonalLoop=1;jettySize=auto;html=1;labelBackgroundColor=default;strokeColor=default;align=center;verticalAlign=middle;fontFamily=Helvetica;fontSize=11;fontColor=default;endArrow=none;endFill=0;" edge="1" parent="WIyWlLk6GJQsqaUBKTNV-1" source="bqVCNSVhDyANK1hjiUMb-74" target="P5qbRvnEPiiORGq3-WAF-38">
          <mxGeometry relative="1" as="geometry" />
        </mxCell>
        <mxCell id="bqVCNSVhDyANK1hjiUMb-74" value="&lt;span style=&quot;font-size: 6px;&quot;&gt;CoverageType&lt;/span&gt;" style="ellipse;whiteSpace=wrap;html=1;fontFamily=Helvetica;fontSize=11;fontColor=default;" vertex="1" parent="WIyWlLk6GJQsqaUBKTNV-1">
          <mxGeometry x="-580" y="1191" width="56" height="18" as="geometry" />
        </mxCell>
        <mxCell id="bqVCNSVhDyANK1hjiUMb-76" value="&lt;span style=&quot;font-size: 6px;&quot;&gt;BillingMethod&lt;/span&gt;" style="ellipse;whiteSpace=wrap;html=1;fontFamily=Helvetica;fontSize=11;fontColor=default;" vertex="1" parent="WIyWlLk6GJQsqaUBKTNV-1">
          <mxGeometry x="-577" y="1212" width="56" height="18" as="geometry" />
        </mxCell>
        <mxCell id="bqVCNSVhDyANK1hjiUMb-77" style="edgeStyle=none;shape=connector;rounded=0;orthogonalLoop=1;jettySize=auto;html=1;exitX=0;exitY=0;exitDx=0;exitDy=0;entryX=1;entryY=0.75;entryDx=0;entryDy=0;labelBackgroundColor=default;strokeColor=default;align=center;verticalAlign=middle;fontFamily=Helvetica;fontSize=11;fontColor=default;endArrow=none;endFill=0;" edge="1" parent="WIyWlLk6GJQsqaUBKTNV-1" source="bqVCNSVhDyANK1hjiUMb-76" target="P5qbRvnEPiiORGq3-WAF-38">
          <mxGeometry relative="1" as="geometry" />
        </mxCell>
        <mxCell id="bqVCNSVhDyANK1hjiUMb-78" value="&lt;span style=&quot;font-size: 6px;&quot;&gt;Duration&lt;/span&gt;" style="ellipse;whiteSpace=wrap;html=1;fontFamily=Helvetica;fontSize=11;fontColor=default;" vertex="1" parent="WIyWlLk6GJQsqaUBKTNV-1">
          <mxGeometry x="-594" y="1235" width="56" height="18" as="geometry" />
        </mxCell>
        <mxCell id="bqVCNSVhDyANK1hjiUMb-79" style="edgeStyle=none;shape=connector;rounded=0;orthogonalLoop=1;jettySize=auto;html=1;exitX=0;exitY=0;exitDx=0;exitDy=0;entryX=0.967;entryY=0.973;entryDx=0;entryDy=0;entryPerimeter=0;labelBackgroundColor=default;strokeColor=default;align=center;verticalAlign=middle;fontFamily=Helvetica;fontSize=11;fontColor=default;endArrow=none;endFill=0;" edge="1" parent="WIyWlLk6GJQsqaUBKTNV-1" source="bqVCNSVhDyANK1hjiUMb-78" target="P5qbRvnEPiiORGq3-WAF-38">
          <mxGeometry relative="1" as="geometry" />
        </mxCell>
        <mxCell id="bqVCNSVhDyANK1hjiUMb-80" value="&lt;span style=&quot;font-size: 6px;&quot;&gt;ExpirationDate&lt;/span&gt;" style="ellipse;whiteSpace=wrap;html=1;fontFamily=Helvetica;fontSize=11;fontColor=default;" vertex="1" parent="WIyWlLk6GJQsqaUBKTNV-1">
          <mxGeometry x="-657" y="1249" width="56" height="18" as="geometry" />
        </mxCell>
        <mxCell id="bqVCNSVhDyANK1hjiUMb-81" style="edgeStyle=none;shape=connector;rounded=0;orthogonalLoop=1;jettySize=auto;html=1;exitX=0.5;exitY=0;exitDx=0;exitDy=0;entryX=0.87;entryY=0.982;entryDx=0;entryDy=0;entryPerimeter=0;labelBackgroundColor=default;strokeColor=default;align=center;verticalAlign=middle;fontFamily=Helvetica;fontSize=11;fontColor=default;endArrow=none;endFill=0;" edge="1" parent="WIyWlLk6GJQsqaUBKTNV-1" source="bqVCNSVhDyANK1hjiUMb-80" target="P5qbRvnEPiiORGq3-WAF-38">
          <mxGeometry relative="1" as="geometry" />
        </mxCell>
        <mxCell id="bqVCNSVhDyANK1hjiUMb-83" value="" style="edgeStyle=none;shape=connector;rounded=0;orthogonalLoop=1;jettySize=auto;html=1;labelBackgroundColor=default;strokeColor=default;align=center;verticalAlign=middle;fontFamily=Helvetica;fontSize=11;fontColor=default;endArrow=none;endFill=0;" edge="1" parent="WIyWlLk6GJQsqaUBKTNV-1" source="bqVCNSVhDyANK1hjiUMb-82" target="P5qbRvnEPiiORGq3-WAF-57">
          <mxGeometry relative="1" as="geometry" />
        </mxCell>
        <mxCell id="bqVCNSVhDyANK1hjiUMb-82" value="&lt;span style=&quot;font-size: 6px;&quot;&gt;&lt;u&gt;ContractBenefit_id&lt;/u&gt;&lt;/span&gt;" style="ellipse;whiteSpace=wrap;html=1;fontFamily=Helvetica;fontSize=11;fontColor=default;" vertex="1" parent="WIyWlLk6GJQsqaUBKTNV-1">
          <mxGeometry x="-540" y="1531" width="56" height="18" as="geometry" />
        </mxCell>
        <mxCell id="bqVCNSVhDyANK1hjiUMb-85" value="" style="edgeStyle=none;shape=connector;rounded=0;orthogonalLoop=1;jettySize=auto;html=1;labelBackgroundColor=default;strokeColor=default;align=center;verticalAlign=middle;fontFamily=Helvetica;fontSize=11;fontColor=default;endArrow=none;endFill=0;" edge="1" parent="WIyWlLk6GJQsqaUBKTNV-1" source="bqVCNSVhDyANK1hjiUMb-84" target="P5qbRvnEPiiORGq3-WAF-57">
          <mxGeometry relative="1" as="geometry" />
        </mxCell>
        <mxCell id="bqVCNSVhDyANK1hjiUMb-84" value="&lt;font style=&quot;font-size: 6px;&quot;&gt;PolicyCountContribution&lt;/font&gt;" style="ellipse;whiteSpace=wrap;html=1;fontFamily=Helvetica;fontSize=11;fontColor=default;" vertex="1" parent="WIyWlLk6GJQsqaUBKTNV-1">
          <mxGeometry x="-541" y="1576" width="77" height="18" as="geometry" />
        </mxCell>
        <mxCell id="bqVCNSVhDyANK1hjiUMb-87" value="" style="edgeStyle=none;shape=connector;rounded=0;orthogonalLoop=1;jettySize=auto;html=1;labelBackgroundColor=default;strokeColor=default;align=center;verticalAlign=middle;fontFamily=Helvetica;fontSize=11;fontColor=default;endArrow=none;endFill=0;" edge="1" parent="WIyWlLk6GJQsqaUBKTNV-1" source="bqVCNSVhDyANK1hjiUMb-86" target="P5qbRvnEPiiORGq3-WAF-62">
          <mxGeometry relative="1" as="geometry" />
        </mxCell>
        <mxCell id="bqVCNSVhDyANK1hjiUMb-86" value="&lt;span style=&quot;font-size: 6px;&quot;&gt;&lt;u&gt;PremiumCode&lt;/u&gt;&lt;/span&gt;" style="ellipse;whiteSpace=wrap;html=1;fontFamily=Helvetica;fontSize=11;fontColor=default;" vertex="1" parent="WIyWlLk6GJQsqaUBKTNV-1">
          <mxGeometry x="-246" y="1196" width="56" height="18" as="geometry" />
        </mxCell>
        <mxCell id="bqVCNSVhDyANK1hjiUMb-95" value="" style="edgeStyle=none;shape=connector;rounded=0;orthogonalLoop=1;jettySize=auto;html=1;labelBackgroundColor=default;strokeColor=default;align=center;verticalAlign=middle;fontFamily=Helvetica;fontSize=11;fontColor=default;endArrow=none;endFill=0;" edge="1" parent="WIyWlLk6GJQsqaUBKTNV-1" source="bqVCNSVhDyANK1hjiUMb-88" target="P5qbRvnEPiiORGq3-WAF-62">
          <mxGeometry relative="1" as="geometry" />
        </mxCell>
        <mxCell id="bqVCNSVhDyANK1hjiUMb-88" value="&lt;span style=&quot;font-size: 6px;&quot;&gt;AnnualizedPremium&lt;/span&gt;" style="ellipse;whiteSpace=wrap;html=1;fontFamily=Helvetica;fontSize=11;fontColor=default;" vertex="1" parent="WIyWlLk6GJQsqaUBKTNV-1">
          <mxGeometry x="-245" y="1223" width="59" height="21" as="geometry" />
        </mxCell>
        <mxCell id="bqVCNSVhDyANK1hjiUMb-94" value="" style="edgeStyle=none;shape=connector;rounded=0;orthogonalLoop=1;jettySize=auto;html=1;labelBackgroundColor=default;strokeColor=default;align=center;verticalAlign=middle;fontFamily=Helvetica;fontSize=11;fontColor=default;endArrow=none;endFill=0;" edge="1" parent="WIyWlLk6GJQsqaUBKTNV-1" source="bqVCNSVhDyANK1hjiUMb-89" target="P5qbRvnEPiiORGq3-WAF-62">
          <mxGeometry relative="1" as="geometry" />
        </mxCell>
        <mxCell id="bqVCNSVhDyANK1hjiUMb-89" value="&lt;span style=&quot;font-size: 6px;&quot;&gt;ProcessDate&lt;/span&gt;" style="ellipse;whiteSpace=wrap;html=1;fontFamily=Helvetica;fontSize=11;fontColor=default;" vertex="1" parent="WIyWlLk6GJQsqaUBKTNV-1">
          <mxGeometry x="-252" y="1250" width="59" height="21" as="geometry" />
        </mxCell>
        <mxCell id="bqVCNSVhDyANK1hjiUMb-93" style="edgeStyle=none;shape=connector;rounded=0;orthogonalLoop=1;jettySize=auto;html=1;exitX=0;exitY=0;exitDx=0;exitDy=0;entryX=0.5;entryY=1;entryDx=0;entryDy=0;labelBackgroundColor=default;strokeColor=default;align=center;verticalAlign=middle;fontFamily=Helvetica;fontSize=11;fontColor=default;endArrow=none;endFill=0;" edge="1" parent="WIyWlLk6GJQsqaUBKTNV-1" source="bqVCNSVhDyANK1hjiUMb-90" target="P5qbRvnEPiiORGq3-WAF-62">
          <mxGeometry relative="1" as="geometry" />
        </mxCell>
        <mxCell id="bqVCNSVhDyANK1hjiUMb-90" value="&lt;span style=&quot;font-size: 6px;&quot;&gt;AppSignDate&lt;/span&gt;" style="ellipse;whiteSpace=wrap;html=1;fontFamily=Helvetica;fontSize=11;fontColor=default;" vertex="1" parent="WIyWlLk6GJQsqaUBKTNV-1">
          <mxGeometry x="-287" y="1276" width="59" height="21" as="geometry" />
        </mxCell>
        <mxCell id="bqVCNSVhDyANK1hjiUMb-97" value="" style="edgeStyle=none;shape=connector;rounded=0;orthogonalLoop=1;jettySize=auto;html=1;labelBackgroundColor=default;strokeColor=default;align=center;verticalAlign=middle;fontFamily=Helvetica;fontSize=11;fontColor=default;endArrow=none;endFill=0;" edge="1" parent="WIyWlLk6GJQsqaUBKTNV-1" source="bqVCNSVhDyANK1hjiUMb-96" target="P5qbRvnEPiiORGq3-WAF-9">
          <mxGeometry relative="1" as="geometry" />
        </mxCell>
        <mxCell id="bqVCNSVhDyANK1hjiUMb-96" value="&lt;span style=&quot;font-size: 6px;&quot;&gt;&lt;u&gt;Customer_id&lt;/u&gt;&lt;/span&gt;" style="ellipse;whiteSpace=wrap;html=1;fontFamily=Helvetica;fontSize=11;fontColor=default;" vertex="1" parent="WIyWlLk6GJQsqaUBKTNV-1">
          <mxGeometry x="567" y="-192" width="59" height="21" as="geometry" />
        </mxCell>
        <mxCell id="bqVCNSVhDyANK1hjiUMb-99" value="" style="edgeStyle=none;shape=connector;rounded=0;orthogonalLoop=1;jettySize=auto;html=1;labelBackgroundColor=default;strokeColor=default;align=center;verticalAlign=middle;fontFamily=Helvetica;fontSize=11;fontColor=default;endArrow=none;endFill=0;" edge="1" parent="WIyWlLk6GJQsqaUBKTNV-1" source="bqVCNSVhDyANK1hjiUMb-98" target="P5qbRvnEPiiORGq3-WAF-9">
          <mxGeometry relative="1" as="geometry" />
        </mxCell>
        <mxCell id="bqVCNSVhDyANK1hjiUMb-98" value="&lt;span style=&quot;font-size: 6px;&quot;&gt;&lt;u&gt;Account_id&lt;/u&gt;&lt;/span&gt;" style="ellipse;whiteSpace=wrap;html=1;fontFamily=Helvetica;fontSize=11;fontColor=default;" vertex="1" parent="WIyWlLk6GJQsqaUBKTNV-1">
          <mxGeometry x="630" y="-177" width="59" height="21" as="geometry" />
        </mxCell>
        <mxCell id="bqVCNSVhDyANK1hjiUMb-101" value="" style="edgeStyle=none;shape=connector;rounded=0;orthogonalLoop=1;jettySize=auto;html=1;labelBackgroundColor=default;strokeColor=default;align=center;verticalAlign=middle;fontFamily=Helvetica;fontSize=11;fontColor=default;endArrow=none;endFill=0;" edge="1" parent="WIyWlLk6GJQsqaUBKTNV-1" source="bqVCNSVhDyANK1hjiUMb-100" target="P5qbRvnEPiiORGq3-WAF-9">
          <mxGeometry relative="1" as="geometry" />
        </mxCell>
        <mxCell id="bqVCNSVhDyANK1hjiUMb-100" value="&lt;span style=&quot;font-size: 6px;&quot;&gt;StartDate&lt;/span&gt;" style="ellipse;whiteSpace=wrap;html=1;fontFamily=Helvetica;fontSize=11;fontColor=default;" vertex="1" parent="WIyWlLk6GJQsqaUBKTNV-1">
          <mxGeometry x="693" y="-180" width="59" height="21" as="geometry" />
        </mxCell>
        <mxCell id="bqVCNSVhDyANK1hjiUMb-103" value="" style="edgeStyle=none;shape=connector;rounded=0;orthogonalLoop=1;jettySize=auto;html=1;labelBackgroundColor=default;strokeColor=default;align=center;verticalAlign=middle;fontFamily=Helvetica;fontSize=11;fontColor=default;endArrow=none;endFill=0;" edge="1" parent="WIyWlLk6GJQsqaUBKTNV-1" source="bqVCNSVhDyANK1hjiUMb-102" target="P5qbRvnEPiiORGq3-WAF-52">
          <mxGeometry relative="1" as="geometry" />
        </mxCell>
        <mxCell id="bqVCNSVhDyANK1hjiUMb-102" value="&lt;span style=&quot;font-size: 6px;&quot;&gt;AssocLastName&lt;/span&gt;" style="ellipse;whiteSpace=wrap;html=1;fontFamily=Helvetica;fontSize=11;fontColor=default;" vertex="1" parent="WIyWlLk6GJQsqaUBKTNV-1">
          <mxGeometry x="354" y="644" width="63" height="18" as="geometry" />
        </mxCell>
        <mxCell id="bqVCNSVhDyANK1hjiUMb-105" value="" style="edgeStyle=none;shape=connector;rounded=0;orthogonalLoop=1;jettySize=auto;html=1;labelBackgroundColor=default;strokeColor=default;align=center;verticalAlign=middle;fontFamily=Helvetica;fontSize=11;fontColor=default;endArrow=none;endFill=0;" edge="1" parent="WIyWlLk6GJQsqaUBKTNV-1" source="bqVCNSVhDyANK1hjiUMb-104" target="P5qbRvnEPiiORGq3-WAF-52">
          <mxGeometry relative="1" as="geometry" />
        </mxCell>
        <mxCell id="bqVCNSVhDyANK1hjiUMb-104" value="&lt;span style=&quot;font-size: 6px;&quot;&gt;AssocFirstName&lt;/span&gt;" style="ellipse;whiteSpace=wrap;html=1;fontFamily=Helvetica;fontSize=11;fontColor=default;" vertex="1" parent="WIyWlLk6GJQsqaUBKTNV-1">
          <mxGeometry x="343" y="670" width="63" height="18" as="geometry" />
        </mxCell>
        <mxCell id="bqVCNSVhDyANK1hjiUMb-107" value="" style="edgeStyle=none;shape=connector;rounded=0;orthogonalLoop=1;jettySize=auto;html=1;labelBackgroundColor=default;strokeColor=default;align=center;verticalAlign=middle;fontFamily=Helvetica;fontSize=11;fontColor=default;endArrow=none;endFill=0;" edge="1" parent="WIyWlLk6GJQsqaUBKTNV-1" source="bqVCNSVhDyANK1hjiUMb-106" target="P5qbRvnEPiiORGq3-WAF-52">
          <mxGeometry relative="1" as="geometry" />
        </mxCell>
        <mxCell id="bqVCNSVhDyANK1hjiUMb-106" value="&lt;span style=&quot;font-size: 6px;&quot;&gt;AssocMiddleInitial&lt;/span&gt;" style="ellipse;whiteSpace=wrap;html=1;fontFamily=Helvetica;fontSize=11;fontColor=default;" vertex="1" parent="WIyWlLk6GJQsqaUBKTNV-1">
          <mxGeometry x="344" y="698" width="63" height="18" as="geometry" />
        </mxCell>
        <mxCell id="bqVCNSVhDyANK1hjiUMb-110" value="" style="edgeStyle=none;shape=connector;rounded=0;orthogonalLoop=1;jettySize=auto;html=1;labelBackgroundColor=default;strokeColor=default;align=center;verticalAlign=middle;fontFamily=Helvetica;fontSize=11;fontColor=default;endArrow=none;endFill=0;" edge="1" parent="WIyWlLk6GJQsqaUBKTNV-1" source="bqVCNSVhDyANK1hjiUMb-108" target="P5qbRvnEPiiORGq3-WAF-52">
          <mxGeometry relative="1" as="geometry" />
        </mxCell>
        <mxCell id="bqVCNSVhDyANK1hjiUMb-108" value="&lt;span style=&quot;font-size: 6px;&quot;&gt;AssocSuffix&lt;/span&gt;" style="ellipse;whiteSpace=wrap;html=1;fontFamily=Helvetica;fontSize=11;fontColor=default;" vertex="1" parent="WIyWlLk6GJQsqaUBKTNV-1">
          <mxGeometry x="334" y="727" width="63" height="18" as="geometry" />
        </mxCell>
        <mxCell id="bqVCNSVhDyANK1hjiUMb-111" value="&lt;span style=&quot;font-size: 6px;&quot;&gt;AssocDOB&lt;/span&gt;" style="ellipse;whiteSpace=wrap;html=1;fontFamily=Helvetica;fontSize=11;fontColor=default;" vertex="1" parent="WIyWlLk6GJQsqaUBKTNV-1">
          <mxGeometry x="360" y="751" width="63" height="18" as="geometry" />
        </mxCell>
        <mxCell id="bqVCNSVhDyANK1hjiUMb-113" value="&lt;span style=&quot;font-size: 6px;&quot;&gt;TenureDate&lt;/span&gt;" style="ellipse;whiteSpace=wrap;html=1;fontFamily=Helvetica;fontSize=11;fontColor=default;" vertex="1" parent="WIyWlLk6GJQsqaUBKTNV-1">
          <mxGeometry x="426" y="762" width="63" height="18" as="geometry" />
        </mxCell>
        <mxCell id="bqVCNSVhDyANK1hjiUMb-114" style="edgeStyle=none;shape=connector;rounded=0;orthogonalLoop=1;jettySize=auto;html=1;exitX=0.5;exitY=0;exitDx=0;exitDy=0;entryX=0.334;entryY=1.023;entryDx=0;entryDy=0;entryPerimeter=0;labelBackgroundColor=default;strokeColor=default;align=center;verticalAlign=middle;fontFamily=Helvetica;fontSize=11;fontColor=default;endArrow=none;endFill=0;" edge="1" parent="WIyWlLk6GJQsqaUBKTNV-1" source="bqVCNSVhDyANK1hjiUMb-113" target="P5qbRvnEPiiORGq3-WAF-52">
          <mxGeometry relative="1" as="geometry" />
        </mxCell>
        <mxCell id="bqVCNSVhDyANK1hjiUMb-138" style="edgeStyle=none;shape=connector;rounded=0;orthogonalLoop=1;jettySize=auto;html=1;exitX=0.5;exitY=1;exitDx=0;exitDy=0;labelBackgroundColor=default;strokeColor=default;align=center;verticalAlign=middle;fontFamily=Helvetica;fontSize=11;fontColor=default;endArrow=none;endFill=0;" edge="1" parent="WIyWlLk6GJQsqaUBKTNV-1" source="bqVCNSVhDyANK1hjiUMb-115" target="P5qbRvnEPiiORGq3-WAF-2">
          <mxGeometry relative="1" as="geometry" />
        </mxCell>
        <mxCell id="bqVCNSVhDyANK1hjiUMb-115" value="&lt;span style=&quot;font-size: 6px;&quot;&gt;AdminLastName&lt;/span&gt;" style="ellipse;whiteSpace=wrap;html=1;fontFamily=Helvetica;fontSize=11;fontColor=default;" vertex="1" parent="WIyWlLk6GJQsqaUBKTNV-1">
          <mxGeometry x="-634" y="195" width="63" height="18" as="geometry" />
        </mxCell>
        <mxCell id="bqVCNSVhDyANK1hjiUMb-140" style="edgeStyle=none;shape=connector;rounded=0;orthogonalLoop=1;jettySize=auto;html=1;exitX=0.5;exitY=1;exitDx=0;exitDy=0;entryX=0.75;entryY=0;entryDx=0;entryDy=0;labelBackgroundColor=default;strokeColor=default;align=center;verticalAlign=middle;fontFamily=Helvetica;fontSize=11;fontColor=default;endArrow=none;endFill=0;" edge="1" parent="WIyWlLk6GJQsqaUBKTNV-1" source="bqVCNSVhDyANK1hjiUMb-116" target="P5qbRvnEPiiORGq3-WAF-2">
          <mxGeometry relative="1" as="geometry" />
        </mxCell>
        <mxCell id="bqVCNSVhDyANK1hjiUMb-116" value="&lt;span style=&quot;font-size: 6px;&quot;&gt;AdminFirstName&lt;/span&gt;" style="ellipse;whiteSpace=wrap;html=1;fontFamily=Helvetica;fontSize=11;fontColor=default;" vertex="1" parent="WIyWlLk6GJQsqaUBKTNV-1">
          <mxGeometry x="-687" y="180" width="63" height="18" as="geometry" />
        </mxCell>
        <mxCell id="bqVCNSVhDyANK1hjiUMb-123" value="" style="edgeStyle=none;shape=connector;rounded=0;orthogonalLoop=1;jettySize=auto;html=1;labelBackgroundColor=default;strokeColor=default;align=center;verticalAlign=middle;fontFamily=Helvetica;fontSize=11;fontColor=default;endArrow=none;endFill=0;" edge="1" parent="WIyWlLk6GJQsqaUBKTNV-1" source="bqVCNSVhDyANK1hjiUMb-117" target="P5qbRvnEPiiORGq3-WAF-2">
          <mxGeometry relative="1" as="geometry" />
        </mxCell>
        <mxCell id="bqVCNSVhDyANK1hjiUMb-117" value="&lt;span style=&quot;font-size: 6px;&quot;&gt;AdminMiddleInitial&lt;/span&gt;" style="ellipse;whiteSpace=wrap;html=1;fontFamily=Helvetica;fontSize=11;fontColor=default;" vertex="1" parent="WIyWlLk6GJQsqaUBKTNV-1">
          <mxGeometry x="-778" y="244" width="63" height="18" as="geometry" />
        </mxCell>
        <mxCell id="bqVCNSVhDyANK1hjiUMb-124" value="" style="edgeStyle=none;shape=connector;rounded=0;orthogonalLoop=1;jettySize=auto;html=1;labelBackgroundColor=default;strokeColor=default;align=center;verticalAlign=middle;fontFamily=Helvetica;fontSize=11;fontColor=default;endArrow=none;endFill=0;" edge="1" parent="WIyWlLk6GJQsqaUBKTNV-1" source="bqVCNSVhDyANK1hjiUMb-118" target="P5qbRvnEPiiORGq3-WAF-2">
          <mxGeometry relative="1" as="geometry" />
        </mxCell>
        <mxCell id="bqVCNSVhDyANK1hjiUMb-118" value="&lt;span style=&quot;font-size: 6px;&quot;&gt;AdminSuffix&lt;/span&gt;" style="ellipse;whiteSpace=wrap;html=1;fontFamily=Helvetica;fontSize=11;fontColor=default;" vertex="1" parent="WIyWlLk6GJQsqaUBKTNV-1">
          <mxGeometry x="-776" y="275" width="63" height="18" as="geometry" />
        </mxCell>
        <mxCell id="bqVCNSVhDyANK1hjiUMb-125" value="&lt;font style=&quot;font-size: 6px;&quot;&gt;Location&lt;/font&gt;" style="ellipse;whiteSpace=wrap;html=1;fontFamily=Helvetica;fontSize=11;fontColor=default;" vertex="1" parent="WIyWlLk6GJQsqaUBKTNV-1">
          <mxGeometry x="-752" y="199" width="56" height="18" as="geometry" />
        </mxCell>
        <mxCell id="bqVCNSVhDyANK1hjiUMb-126" style="edgeStyle=none;shape=connector;rounded=0;orthogonalLoop=1;jettySize=auto;html=1;exitX=1;exitY=1;exitDx=0;exitDy=0;entryX=0;entryY=0;entryDx=0;entryDy=0;labelBackgroundColor=default;strokeColor=default;align=center;verticalAlign=middle;fontFamily=Helvetica;fontSize=11;fontColor=default;endArrow=none;endFill=0;" edge="1" parent="WIyWlLk6GJQsqaUBKTNV-1" source="bqVCNSVhDyANK1hjiUMb-127" target="bqVCNSVhDyANK1hjiUMb-125">
          <mxGeometry relative="1" as="geometry" />
        </mxCell>
        <mxCell id="bqVCNSVhDyANK1hjiUMb-127" value="&lt;font style=&quot;font-size: 6px;&quot;&gt;Address2&lt;/font&gt;" style="ellipse;whiteSpace=wrap;html=1;fontFamily=Helvetica;fontSize=11;fontColor=default;" vertex="1" parent="WIyWlLk6GJQsqaUBKTNV-1">
          <mxGeometry x="-832" y="139" width="56" height="18" as="geometry" />
        </mxCell>
        <mxCell id="bqVCNSVhDyANK1hjiUMb-128" style="edgeStyle=none;shape=connector;rounded=0;orthogonalLoop=1;jettySize=auto;html=1;exitX=1;exitY=1;exitDx=0;exitDy=0;entryX=0.5;entryY=0;entryDx=0;entryDy=0;labelBackgroundColor=default;strokeColor=default;align=center;verticalAlign=middle;fontFamily=Helvetica;fontSize=11;fontColor=default;endArrow=none;endFill=0;" edge="1" parent="WIyWlLk6GJQsqaUBKTNV-1" source="bqVCNSVhDyANK1hjiUMb-129" target="bqVCNSVhDyANK1hjiUMb-125">
          <mxGeometry relative="1" as="geometry" />
        </mxCell>
        <mxCell id="bqVCNSVhDyANK1hjiUMb-129" value="&lt;font style=&quot;font-size: 6px;&quot;&gt;Address1&lt;/font&gt;" style="ellipse;whiteSpace=wrap;html=1;fontFamily=Helvetica;fontSize=11;fontColor=default;" vertex="1" parent="WIyWlLk6GJQsqaUBKTNV-1">
          <mxGeometry x="-784" y="120" width="56" height="18" as="geometry" />
        </mxCell>
        <mxCell id="bqVCNSVhDyANK1hjiUMb-130" style="edgeStyle=none;shape=connector;rounded=0;orthogonalLoop=1;jettySize=auto;html=1;exitX=1;exitY=0.5;exitDx=0;exitDy=0;entryX=0;entryY=0.5;entryDx=0;entryDy=0;labelBackgroundColor=default;strokeColor=default;align=center;verticalAlign=middle;fontFamily=Helvetica;fontSize=11;fontColor=default;endArrow=none;endFill=0;" edge="1" parent="WIyWlLk6GJQsqaUBKTNV-1" source="bqVCNSVhDyANK1hjiUMb-131" target="bqVCNSVhDyANK1hjiUMb-125">
          <mxGeometry relative="1" as="geometry" />
        </mxCell>
        <mxCell id="bqVCNSVhDyANK1hjiUMb-131" value="&lt;font style=&quot;font-size: 6px;&quot;&gt;City&lt;/font&gt;" style="ellipse;whiteSpace=wrap;html=1;fontFamily=Helvetica;fontSize=11;fontColor=default;" vertex="1" parent="WIyWlLk6GJQsqaUBKTNV-1">
          <mxGeometry x="-847" y="164" width="56" height="18" as="geometry" />
        </mxCell>
        <mxCell id="bqVCNSVhDyANK1hjiUMb-132" style="edgeStyle=none;shape=connector;rounded=0;orthogonalLoop=1;jettySize=auto;html=1;exitX=1;exitY=0.5;exitDx=0;exitDy=0;entryX=0;entryY=1;entryDx=0;entryDy=0;labelBackgroundColor=default;strokeColor=default;align=center;verticalAlign=middle;fontFamily=Helvetica;fontSize=11;fontColor=default;endArrow=none;endFill=0;" edge="1" parent="WIyWlLk6GJQsqaUBKTNV-1" source="bqVCNSVhDyANK1hjiUMb-133" target="bqVCNSVhDyANK1hjiUMb-125">
          <mxGeometry relative="1" as="geometry" />
        </mxCell>
        <mxCell id="bqVCNSVhDyANK1hjiUMb-133" value="&lt;font style=&quot;font-size: 6px;&quot;&gt;State&lt;/font&gt;" style="ellipse;whiteSpace=wrap;html=1;fontFamily=Helvetica;fontSize=11;fontColor=default;" vertex="1" parent="WIyWlLk6GJQsqaUBKTNV-1">
          <mxGeometry x="-835" y="208" width="56" height="18" as="geometry" />
        </mxCell>
        <mxCell id="bqVCNSVhDyANK1hjiUMb-135" value="&lt;span style=&quot;font-size: 6px;&quot;&gt;ZIP&lt;br&gt;&lt;/span&gt;" style="ellipse;whiteSpace=wrap;html=1;fontFamily=Helvetica;fontSize=11;fontColor=default;" vertex="1" parent="WIyWlLk6GJQsqaUBKTNV-1">
          <mxGeometry x="-728" y="138" width="56" height="18" as="geometry" />
        </mxCell>
        <mxCell id="bqVCNSVhDyANK1hjiUMb-136" style="edgeStyle=none;shape=connector;rounded=0;orthogonalLoop=1;jettySize=auto;html=1;exitX=0.5;exitY=1;exitDx=0;exitDy=0;labelBackgroundColor=default;strokeColor=default;align=center;verticalAlign=middle;fontFamily=Helvetica;fontSize=11;fontColor=default;endArrow=none;endFill=0;" edge="1" parent="WIyWlLk6GJQsqaUBKTNV-1">
          <mxGeometry relative="1" as="geometry">
            <mxPoint x="-702" y="127" as="sourcePoint" />
            <mxPoint x="-702" y="127" as="targetPoint" />
          </mxGeometry>
        </mxCell>
        <mxCell id="bqVCNSVhDyANK1hjiUMb-139" style="edgeStyle=none;shape=connector;rounded=0;orthogonalLoop=1;jettySize=auto;html=1;exitX=0;exitY=0.5;exitDx=0;exitDy=0;labelBackgroundColor=default;strokeColor=default;align=center;verticalAlign=middle;fontFamily=Helvetica;fontSize=11;fontColor=default;endArrow=none;endFill=0;" edge="1" parent="WIyWlLk6GJQsqaUBKTNV-1" source="bqVCNSVhDyANK1hjiUMb-28">
          <mxGeometry relative="1" as="geometry">
            <mxPoint x="-639" y="252" as="targetPoint" />
          </mxGeometry>
        </mxCell>
        <mxCell id="bqVCNSVhDyANK1hjiUMb-141" style="edgeStyle=none;shape=connector;rounded=0;orthogonalLoop=1;jettySize=auto;html=1;exitX=0.5;exitY=0;exitDx=0;exitDy=0;entryX=0.677;entryY=0.951;entryDx=0;entryDy=0;entryPerimeter=0;labelBackgroundColor=default;strokeColor=default;align=center;verticalAlign=middle;fontFamily=Helvetica;fontSize=11;fontColor=default;endArrow=none;endFill=0;" edge="1" parent="WIyWlLk6GJQsqaUBKTNV-1" source="P5qbRvnEPiiORGq3-WAF-2" target="bqVCNSVhDyANK1hjiUMb-125">
          <mxGeometry relative="1" as="geometry" />
        </mxCell>
        <mxCell id="bqVCNSVhDyANK1hjiUMb-142" style="edgeStyle=none;shape=connector;rounded=0;orthogonalLoop=1;jettySize=auto;html=1;exitX=0.5;exitY=1;exitDx=0;exitDy=0;entryX=0.645;entryY=0.037;entryDx=0;entryDy=0;entryPerimeter=0;labelBackgroundColor=default;strokeColor=default;align=center;verticalAlign=middle;fontFamily=Helvetica;fontSize=11;fontColor=default;endArrow=none;endFill=0;" edge="1" parent="WIyWlLk6GJQsqaUBKTNV-1" source="bqVCNSVhDyANK1hjiUMb-135" target="bqVCNSVhDyANK1hjiUMb-125">
          <mxGeometry relative="1" as="geometry" />
        </mxCell>
        <mxCell id="bqVCNSVhDyANK1hjiUMb-162" value="" style="edgeStyle=none;shape=connector;rounded=0;orthogonalLoop=1;jettySize=auto;html=1;labelBackgroundColor=default;strokeColor=default;align=center;verticalAlign=middle;fontFamily=Helvetica;fontSize=11;fontColor=default;endArrow=none;endFill=0;" edge="1" parent="WIyWlLk6GJQsqaUBKTNV-1" source="bqVCNSVhDyANK1hjiUMb-144" target="P5qbRvnEPiiORGq3-WAF-15">
          <mxGeometry relative="1" as="geometry" />
        </mxCell>
        <mxCell id="bqVCNSVhDyANK1hjiUMb-144" value="&lt;span style=&quot;font-size: 6px;&quot;&gt;BAcctName&lt;/span&gt;" style="ellipse;whiteSpace=wrap;html=1;fontFamily=Helvetica;fontSize=11;fontColor=default;" vertex="1" parent="WIyWlLk6GJQsqaUBKTNV-1">
          <mxGeometry x="204" y="-67" width="56" height="18" as="geometry" />
        </mxCell>
        <mxCell id="bqVCNSVhDyANK1hjiUMb-147" value="&lt;span style=&quot;font-size: 6px;&quot;&gt;BAccName2&lt;/span&gt;" style="ellipse;whiteSpace=wrap;html=1;fontFamily=Helvetica;fontSize=11;fontColor=default;" vertex="1" parent="WIyWlLk6GJQsqaUBKTNV-1">
          <mxGeometry x="197.5" y="-91" width="56" height="18" as="geometry" />
        </mxCell>
        <mxCell id="bqVCNSVhDyANK1hjiUMb-163" value="" style="edgeStyle=none;shape=connector;rounded=0;orthogonalLoop=1;jettySize=auto;html=1;labelBackgroundColor=default;strokeColor=default;align=center;verticalAlign=middle;fontFamily=Helvetica;fontSize=11;fontColor=default;endArrow=none;endFill=0;" edge="1" parent="WIyWlLk6GJQsqaUBKTNV-1" source="bqVCNSVhDyANK1hjiUMb-149" target="P5qbRvnEPiiORGq3-WAF-15">
          <mxGeometry relative="1" as="geometry" />
        </mxCell>
        <mxCell id="bqVCNSVhDyANK1hjiUMb-149" value="&lt;font style=&quot;font-size: 6px;&quot;&gt;Location&lt;/font&gt;" style="ellipse;whiteSpace=wrap;html=1;fontFamily=Helvetica;fontSize=11;fontColor=default;" vertex="1" parent="WIyWlLk6GJQsqaUBKTNV-1">
          <mxGeometry x="61" y="-74" width="56" height="18" as="geometry" />
        </mxCell>
        <mxCell id="bqVCNSVhDyANK1hjiUMb-150" style="edgeStyle=none;shape=connector;rounded=0;orthogonalLoop=1;jettySize=auto;html=1;exitX=1;exitY=1;exitDx=0;exitDy=0;entryX=0;entryY=0;entryDx=0;entryDy=0;labelBackgroundColor=default;strokeColor=default;align=center;verticalAlign=middle;fontFamily=Helvetica;fontSize=11;fontColor=default;endArrow=none;endFill=0;" edge="1" parent="WIyWlLk6GJQsqaUBKTNV-1" source="bqVCNSVhDyANK1hjiUMb-151" target="bqVCNSVhDyANK1hjiUMb-149">
          <mxGeometry relative="1" as="geometry" />
        </mxCell>
        <mxCell id="bqVCNSVhDyANK1hjiUMb-151" value="&lt;font style=&quot;font-size: 6px;&quot;&gt;Address2&lt;/font&gt;" style="ellipse;whiteSpace=wrap;html=1;fontFamily=Helvetica;fontSize=11;fontColor=default;" vertex="1" parent="WIyWlLk6GJQsqaUBKTNV-1">
          <mxGeometry x="-11" y="-119" width="56" height="18" as="geometry" />
        </mxCell>
        <mxCell id="bqVCNSVhDyANK1hjiUMb-152" style="edgeStyle=none;shape=connector;rounded=0;orthogonalLoop=1;jettySize=auto;html=1;exitX=1;exitY=1;exitDx=0;exitDy=0;entryX=0.5;entryY=0;entryDx=0;entryDy=0;labelBackgroundColor=default;strokeColor=default;align=center;verticalAlign=middle;fontFamily=Helvetica;fontSize=11;fontColor=default;endArrow=none;endFill=0;" edge="1" parent="WIyWlLk6GJQsqaUBKTNV-1" source="bqVCNSVhDyANK1hjiUMb-153" target="bqVCNSVhDyANK1hjiUMb-149">
          <mxGeometry relative="1" as="geometry" />
        </mxCell>
        <mxCell id="bqVCNSVhDyANK1hjiUMb-153" value="&lt;font style=&quot;font-size: 6px;&quot;&gt;Address1&lt;/font&gt;" style="ellipse;whiteSpace=wrap;html=1;fontFamily=Helvetica;fontSize=11;fontColor=default;" vertex="1" parent="WIyWlLk6GJQsqaUBKTNV-1">
          <mxGeometry x="24" y="-147" width="56" height="18" as="geometry" />
        </mxCell>
        <mxCell id="bqVCNSVhDyANK1hjiUMb-154" style="edgeStyle=none;shape=connector;rounded=0;orthogonalLoop=1;jettySize=auto;html=1;exitX=1;exitY=0.5;exitDx=0;exitDy=0;entryX=0;entryY=0.5;entryDx=0;entryDy=0;labelBackgroundColor=default;strokeColor=default;align=center;verticalAlign=middle;fontFamily=Helvetica;fontSize=11;fontColor=default;endArrow=none;endFill=0;" edge="1" parent="WIyWlLk6GJQsqaUBKTNV-1" source="bqVCNSVhDyANK1hjiUMb-155" target="bqVCNSVhDyANK1hjiUMb-149">
          <mxGeometry relative="1" as="geometry" />
        </mxCell>
        <mxCell id="bqVCNSVhDyANK1hjiUMb-155" value="&lt;font style=&quot;font-size: 6px;&quot;&gt;City&lt;/font&gt;" style="ellipse;whiteSpace=wrap;html=1;fontFamily=Helvetica;fontSize=11;fontColor=default;" vertex="1" parent="WIyWlLk6GJQsqaUBKTNV-1">
          <mxGeometry x="-26" y="-88" width="56" height="18" as="geometry" />
        </mxCell>
        <mxCell id="bqVCNSVhDyANK1hjiUMb-166" style="edgeStyle=none;shape=connector;rounded=0;orthogonalLoop=1;jettySize=auto;html=1;exitX=0;exitY=0.5;exitDx=0;exitDy=0;entryX=1;entryY=0.5;entryDx=0;entryDy=0;labelBackgroundColor=default;strokeColor=default;align=center;verticalAlign=middle;fontFamily=Helvetica;fontSize=11;fontColor=default;endArrow=none;endFill=0;" edge="1" parent="WIyWlLk6GJQsqaUBKTNV-1" source="bqVCNSVhDyANK1hjiUMb-157" target="bqVCNSVhDyANK1hjiUMb-149">
          <mxGeometry relative="1" as="geometry" />
        </mxCell>
        <mxCell id="bqVCNSVhDyANK1hjiUMb-157" value="&lt;font style=&quot;font-size: 6px;&quot;&gt;State&lt;/font&gt;" style="ellipse;whiteSpace=wrap;html=1;fontFamily=Helvetica;fontSize=11;fontColor=default;" vertex="1" parent="WIyWlLk6GJQsqaUBKTNV-1">
          <mxGeometry x="142" y="-127" width="56" height="18" as="geometry" />
        </mxCell>
        <mxCell id="bqVCNSVhDyANK1hjiUMb-158" value="&lt;span style=&quot;font-size: 6px;&quot;&gt;ZIP&lt;br&gt;&lt;/span&gt;" style="ellipse;whiteSpace=wrap;html=1;fontFamily=Helvetica;fontSize=11;fontColor=default;" vertex="1" parent="WIyWlLk6GJQsqaUBKTNV-1">
          <mxGeometry x="95" y="-153" width="56" height="18" as="geometry" />
        </mxCell>
        <mxCell id="bqVCNSVhDyANK1hjiUMb-159" style="edgeStyle=none;shape=connector;rounded=0;orthogonalLoop=1;jettySize=auto;html=1;exitX=0.5;exitY=1;exitDx=0;exitDy=0;labelBackgroundColor=default;strokeColor=default;align=center;verticalAlign=middle;fontFamily=Helvetica;fontSize=11;fontColor=default;endArrow=none;endFill=0;" edge="1" parent="WIyWlLk6GJQsqaUBKTNV-1">
          <mxGeometry relative="1" as="geometry">
            <mxPoint x="152" y="-154" as="sourcePoint" />
            <mxPoint x="152" y="-154" as="targetPoint" />
          </mxGeometry>
        </mxCell>
        <mxCell id="bqVCNSVhDyANK1hjiUMb-160" style="edgeStyle=none;shape=connector;rounded=0;orthogonalLoop=1;jettySize=auto;html=1;exitX=0.5;exitY=1;exitDx=0;exitDy=0;entryX=0.645;entryY=0.037;entryDx=0;entryDy=0;entryPerimeter=0;labelBackgroundColor=default;strokeColor=default;align=center;verticalAlign=middle;fontFamily=Helvetica;fontSize=11;fontColor=default;endArrow=none;endFill=0;" edge="1" parent="WIyWlLk6GJQsqaUBKTNV-1" source="bqVCNSVhDyANK1hjiUMb-158" target="bqVCNSVhDyANK1hjiUMb-149">
          <mxGeometry relative="1" as="geometry" />
        </mxCell>
        <mxCell id="bqVCNSVhDyANK1hjiUMb-169" value="" style="edgeStyle=none;shape=connector;rounded=0;orthogonalLoop=1;jettySize=auto;html=1;labelBackgroundColor=default;strokeColor=default;align=center;verticalAlign=middle;fontFamily=Helvetica;fontSize=11;fontColor=default;endArrow=none;endFill=0;" edge="1" parent="WIyWlLk6GJQsqaUBKTNV-1" source="bqVCNSVhDyANK1hjiUMb-167" target="P5qbRvnEPiiORGq3-WAF-48">
          <mxGeometry relative="1" as="geometry" />
        </mxCell>
        <mxCell id="bqVCNSVhDyANK1hjiUMb-167" value="&lt;span style=&quot;font-size: 6px;&quot;&gt;StartDate&lt;/span&gt;" style="ellipse;whiteSpace=wrap;html=1;fontFamily=Helvetica;fontSize=11;fontColor=default;" vertex="1" parent="WIyWlLk6GJQsqaUBKTNV-1">
          <mxGeometry x="406" y="153" width="56" height="18" as="geometry" />
        </mxCell>
        <mxCell id="bqVCNSVhDyANK1hjiUMb-170" value="" style="edgeStyle=none;shape=connector;rounded=0;orthogonalLoop=1;jettySize=auto;html=1;labelBackgroundColor=default;strokeColor=default;align=center;verticalAlign=middle;fontFamily=Helvetica;fontSize=11;fontColor=default;endArrow=none;endFill=0;" edge="1" parent="WIyWlLk6GJQsqaUBKTNV-1" source="bqVCNSVhDyANK1hjiUMb-168" target="P5qbRvnEPiiORGq3-WAF-48">
          <mxGeometry relative="1" as="geometry" />
        </mxCell>
        <mxCell id="bqVCNSVhDyANK1hjiUMb-168" value="&lt;span style=&quot;font-size: 6px;&quot;&gt;StopDate&lt;/span&gt;" style="ellipse;whiteSpace=wrap;html=1;fontFamily=Helvetica;fontSize=11;fontColor=default;" vertex="1" parent="WIyWlLk6GJQsqaUBKTNV-1">
          <mxGeometry x="398" y="193" width="56" height="18" as="geometry" />
        </mxCell>
        <mxCell id="bqVCNSVhDyANK1hjiUMb-172" value="&lt;font style=&quot;font-size: 6px;&quot;&gt;Recruiter&lt;/font&gt;" style="edgeLabel;html=1;align=center;verticalAlign=middle;resizable=0;points=[];fontSize=11;fontFamily=Helvetica;fontColor=default;" connectable="0" vertex="1" parent="WIyWlLk6GJQsqaUBKTNV-1">
          <mxGeometry x="661" y="633.0000000000002" as="geometry">
            <mxPoint x="4" y="4" as="offset" />
          </mxGeometry>
        </mxCell>
        <mxCell id="bqVCNSVhDyANK1hjiUMb-176" value="" style="edgeStyle=none;shape=connector;rounded=0;orthogonalLoop=1;jettySize=auto;html=1;labelBackgroundColor=default;strokeColor=default;align=center;verticalAlign=middle;fontFamily=Helvetica;fontSize=11;fontColor=default;endArrow=none;endFill=0;" edge="1" parent="WIyWlLk6GJQsqaUBKTNV-1" source="bqVCNSVhDyANK1hjiUMb-173" target="P5qbRvnEPiiORGq3-WAF-65">
          <mxGeometry relative="1" as="geometry" />
        </mxCell>
        <mxCell id="bqVCNSVhDyANK1hjiUMb-173" value="&lt;span style=&quot;font-size: 6px;&quot;&gt;Amount&lt;/span&gt;" style="ellipse;whiteSpace=wrap;html=1;fontFamily=Helvetica;fontSize=11;fontColor=default;" vertex="1" parent="WIyWlLk6GJQsqaUBKTNV-1">
          <mxGeometry x="-243" y="653" width="63" height="18" as="geometry" />
        </mxCell>
        <mxCell id="bqVCNSVhDyANK1hjiUMb-177" value="" style="edgeStyle=none;shape=connector;rounded=0;orthogonalLoop=1;jettySize=auto;html=1;labelBackgroundColor=default;strokeColor=default;align=center;verticalAlign=middle;fontFamily=Helvetica;fontSize=11;fontColor=default;endArrow=none;endFill=0;" edge="1" parent="WIyWlLk6GJQsqaUBKTNV-1" source="bqVCNSVhDyANK1hjiUMb-174" target="P5qbRvnEPiiORGq3-WAF-65">
          <mxGeometry relative="1" as="geometry" />
        </mxCell>
        <mxCell id="bqVCNSVhDyANK1hjiUMb-174" value="&lt;span style=&quot;font-size: 6px;&quot;&gt;CommisionRate&lt;/span&gt;" style="ellipse;whiteSpace=wrap;html=1;fontFamily=Helvetica;fontSize=11;fontColor=default;" vertex="1" parent="WIyWlLk6GJQsqaUBKTNV-1">
          <mxGeometry x="-242" y="679" width="63" height="18" as="geometry" />
        </mxCell>
        <mxCell id="bqVCNSVhDyANK1hjiUMb-179" value="" style="edgeStyle=none;shape=connector;rounded=0;orthogonalLoop=1;jettySize=auto;html=1;labelBackgroundColor=default;strokeColor=default;align=center;verticalAlign=middle;fontFamily=Helvetica;fontSize=11;fontColor=default;endArrow=none;endFill=0;" edge="1" parent="WIyWlLk6GJQsqaUBKTNV-1" source="bqVCNSVhDyANK1hjiUMb-178" target="P5qbRvnEPiiORGq3-WAF-68">
          <mxGeometry relative="1" as="geometry" />
        </mxCell>
        <mxCell id="bqVCNSVhDyANK1hjiUMb-178" value="&lt;font style=&quot;font-size: 6px;&quot;&gt;ProductionCreditSplitPercentage&lt;/font&gt;" style="ellipse;whiteSpace=wrap;html=1;fontFamily=Helvetica;fontSize=11;fontColor=default;" vertex="1" parent="WIyWlLk6GJQsqaUBKTNV-1">
          <mxGeometry x="338" y="837" width="94" height="31" as="geometry" />
        </mxCell>
        <mxCell id="bqVCNSVhDyANK1hjiUMb-183" value="" style="edgeStyle=none;shape=connector;rounded=0;orthogonalLoop=1;jettySize=auto;html=1;labelBackgroundColor=default;strokeColor=default;align=center;verticalAlign=middle;fontFamily=Helvetica;fontSize=11;fontColor=default;endArrow=none;endFill=0;" edge="1" parent="WIyWlLk6GJQsqaUBKTNV-1" source="bqVCNSVhDyANK1hjiUMb-181" target="P5qbRvnEPiiORGq3-WAF-68">
          <mxGeometry relative="1" as="geometry" />
        </mxCell>
        <mxCell id="bqVCNSVhDyANK1hjiUMb-181" value="&lt;span style=&quot;font-size: 6px;&quot;&gt;EndDate&lt;/span&gt;" style="ellipse;whiteSpace=wrap;html=1;fontFamily=Helvetica;fontSize=11;fontColor=default;" vertex="1" parent="WIyWlLk6GJQsqaUBKTNV-1">
          <mxGeometry x="259" y="851" width="63" height="18" as="geometry" />
        </mxCell>
        <mxCell id="bqVCNSVhDyANK1hjiUMb-186" style="edgeStyle=none;shape=connector;rounded=0;orthogonalLoop=1;jettySize=auto;html=1;exitX=1;exitY=0.5;exitDx=0;exitDy=0;entryX=0.104;entryY=0.385;entryDx=0;entryDy=0;labelBackgroundColor=default;strokeColor=default;align=center;verticalAlign=middle;fontFamily=Helvetica;fontSize=11;fontColor=default;endArrow=none;endFill=0;entryPerimeter=0;" edge="1" parent="WIyWlLk6GJQsqaUBKTNV-1" source="bqVCNSVhDyANK1hjiUMb-184" target="P5qbRvnEPiiORGq3-WAF-68">
          <mxGeometry relative="1" as="geometry" />
        </mxCell>
        <mxCell id="bqVCNSVhDyANK1hjiUMb-184" value="&lt;span style=&quot;font-size: 6px;&quot;&gt;TerritoryName&lt;/span&gt;" style="ellipse;whiteSpace=wrap;html=1;fontFamily=Helvetica;fontSize=11;fontColor=default;" vertex="1" parent="WIyWlLk6GJQsqaUBKTNV-1">
          <mxGeometry x="213" y="873" width="63" height="18" as="geometry" />
        </mxCell>
        <mxCell id="bqVCNSVhDyANK1hjiUMb-189" value="" style="edgeStyle=none;shape=connector;rounded=0;orthogonalLoop=1;jettySize=auto;html=1;labelBackgroundColor=default;strokeColor=default;align=center;verticalAlign=middle;fontFamily=Helvetica;fontSize=11;fontColor=default;endArrow=none;endFill=0;entryX=0;entryY=0.5;entryDx=0;entryDy=0;" edge="1" parent="WIyWlLk6GJQsqaUBKTNV-1" source="bqVCNSVhDyANK1hjiUMb-187" target="P5qbRvnEPiiORGq3-WAF-68">
          <mxGeometry relative="1" as="geometry" />
        </mxCell>
        <mxCell id="bqVCNSVhDyANK1hjiUMb-187" value="&lt;span style=&quot;font-size: 6px;&quot;&gt;TerritoryStartDate&lt;/span&gt;" style="ellipse;whiteSpace=wrap;html=1;fontFamily=Helvetica;fontSize=11;fontColor=default;" vertex="1" parent="WIyWlLk6GJQsqaUBKTNV-1">
          <mxGeometry x="195" y="899" width="63" height="18" as="geometry" />
        </mxCell>
        <mxCell id="bqVCNSVhDyANK1hjiUMb-190" value="" style="edgeStyle=none;shape=connector;rounded=0;orthogonalLoop=1;jettySize=auto;html=1;labelBackgroundColor=default;strokeColor=default;align=center;verticalAlign=middle;fontFamily=Helvetica;fontSize=11;fontColor=default;endArrow=none;endFill=0;" edge="1" parent="WIyWlLk6GJQsqaUBKTNV-1" source="bqVCNSVhDyANK1hjiUMb-188" target="P5qbRvnEPiiORGq3-WAF-68">
          <mxGeometry relative="1" as="geometry" />
        </mxCell>
        <mxCell id="bqVCNSVhDyANK1hjiUMb-188" value="&lt;span style=&quot;font-size: 6px;&quot;&gt;TerritoryEndDate&lt;/span&gt;" style="ellipse;whiteSpace=wrap;html=1;fontFamily=Helvetica;fontSize=11;fontColor=default;" vertex="1" parent="WIyWlLk6GJQsqaUBKTNV-1">
          <mxGeometry x="189" y="927" width="63" height="18" as="geometry" />
        </mxCell>
        <mxCell id="bqVCNSVhDyANK1hjiUMb-191" value="&lt;span style=&quot;font-size: 6px;&quot;&gt;TerritoryCoordinatorEndDate&lt;/span&gt;" style="ellipse;whiteSpace=wrap;html=1;fontFamily=Helvetica;fontSize=11;fontColor=default;" vertex="1" parent="WIyWlLk6GJQsqaUBKTNV-1">
          <mxGeometry x="186" y="951" width="84" height="27" as="geometry" />
        </mxCell>
        <mxCell id="bqVCNSVhDyANK1hjiUMb-192" style="edgeStyle=none;shape=connector;rounded=0;orthogonalLoop=1;jettySize=auto;html=1;exitX=1;exitY=0;exitDx=0;exitDy=0;entryX=0.174;entryY=0.689;entryDx=0;entryDy=0;entryPerimeter=0;labelBackgroundColor=default;strokeColor=default;align=center;verticalAlign=middle;fontFamily=Helvetica;fontSize=11;fontColor=default;endArrow=none;endFill=0;" edge="1" parent="WIyWlLk6GJQsqaUBKTNV-1" source="bqVCNSVhDyANK1hjiUMb-191" target="P5qbRvnEPiiORGq3-WAF-68">
          <mxGeometry relative="1" as="geometry" />
        </mxCell>
        <mxCell id="bqVCNSVhDyANK1hjiUMb-194" value="&lt;span style=&quot;font-size: 6px;&quot;&gt;LevelName&lt;/span&gt;" style="ellipse;whiteSpace=wrap;html=1;fontFamily=Helvetica;fontSize=11;fontColor=default;" vertex="1" parent="WIyWlLk6GJQsqaUBKTNV-1">
          <mxGeometry x="194" y="990" width="63" height="18" as="geometry" />
        </mxCell>
        <mxCell id="bqVCNSVhDyANK1hjiUMb-195" style="edgeStyle=none;shape=connector;rounded=0;orthogonalLoop=1;jettySize=auto;html=1;exitX=1;exitY=0.5;exitDx=0;exitDy=0;entryX=0;entryY=1;entryDx=0;entryDy=0;labelBackgroundColor=default;strokeColor=default;align=center;verticalAlign=middle;fontFamily=Helvetica;fontSize=11;fontColor=default;endArrow=none;endFill=0;" edge="1" parent="WIyWlLk6GJQsqaUBKTNV-1" source="bqVCNSVhDyANK1hjiUMb-194" target="P5qbRvnEPiiORGq3-WAF-68">
          <mxGeometry relative="1" as="geometry" />
        </mxCell>
        <mxCell id="bqVCNSVhDyANK1hjiUMb-196" value="&lt;span style=&quot;font-size: 6px;&quot;&gt;Level&lt;/span&gt;" style="ellipse;whiteSpace=wrap;html=1;fontFamily=Helvetica;fontSize=11;fontColor=default;" vertex="1" parent="WIyWlLk6GJQsqaUBKTNV-1">
          <mxGeometry x="224" y="1020" width="63" height="18" as="geometry" />
        </mxCell>
        <mxCell id="bqVCNSVhDyANK1hjiUMb-197" style="edgeStyle=none;shape=connector;rounded=0;orthogonalLoop=1;jettySize=auto;html=1;exitX=1;exitY=0;exitDx=0;exitDy=0;entryX=0.326;entryY=0.85;entryDx=0;entryDy=0;entryPerimeter=0;labelBackgroundColor=default;strokeColor=default;align=center;verticalAlign=middle;fontFamily=Helvetica;fontSize=11;fontColor=default;endArrow=none;endFill=0;" edge="1" parent="WIyWlLk6GJQsqaUBKTNV-1" source="bqVCNSVhDyANK1hjiUMb-196" target="P5qbRvnEPiiORGq3-WAF-68">
          <mxGeometry relative="1" as="geometry" />
        </mxCell>
        <mxCell id="bqVCNSVhDyANK1hjiUMb-198" value="&lt;span style=&quot;font-size: 6px;&quot;&gt;LevelAbbreviation&lt;/span&gt;" style="ellipse;whiteSpace=wrap;html=1;fontFamily=Helvetica;fontSize=11;fontColor=default;" vertex="1" parent="WIyWlLk6GJQsqaUBKTNV-1">
          <mxGeometry x="278" y="1040" width="63" height="18" as="geometry" />
        </mxCell>
        <mxCell id="bqVCNSVhDyANK1hjiUMb-199" style="edgeStyle=none;shape=connector;rounded=0;orthogonalLoop=1;jettySize=auto;html=1;exitX=1;exitY=0;exitDx=0;exitDy=0;entryX=0.394;entryY=0.894;entryDx=0;entryDy=0;entryPerimeter=0;labelBackgroundColor=default;strokeColor=default;align=center;verticalAlign=middle;fontFamily=Helvetica;fontSize=11;fontColor=default;endArrow=none;endFill=0;" edge="1" parent="WIyWlLk6GJQsqaUBKTNV-1" source="bqVCNSVhDyANK1hjiUMb-198" target="P5qbRvnEPiiORGq3-WAF-68">
          <mxGeometry relative="1" as="geometry" />
        </mxCell>
        <mxCell id="bqVCNSVhDyANK1hjiUMb-210" value="" style="edgeStyle=none;shape=connector;rounded=0;orthogonalLoop=1;jettySize=auto;html=1;labelBackgroundColor=default;strokeColor=default;align=center;verticalAlign=middle;fontFamily=Helvetica;fontSize=11;fontColor=default;endArrow=none;endFill=0;" edge="1" parent="WIyWlLk6GJQsqaUBKTNV-1" source="bqVCNSVhDyANK1hjiUMb-201" target="P5qbRvnEPiiORGq3-WAF-68">
          <mxGeometry relative="1" as="geometry" />
        </mxCell>
        <mxCell id="bqVCNSVhDyANK1hjiUMb-201" value="&lt;span style=&quot;font-size: 6px;&quot;&gt;IssueDate&lt;/span&gt;" style="ellipse;whiteSpace=wrap;html=1;fontFamily=Helvetica;fontSize=11;fontColor=default;" vertex="1" parent="WIyWlLk6GJQsqaUBKTNV-1">
          <mxGeometry x="578" y="860" width="63" height="18" as="geometry" />
        </mxCell>
        <mxCell id="bqVCNSVhDyANK1hjiUMb-209" value="" style="edgeStyle=none;shape=connector;rounded=0;orthogonalLoop=1;jettySize=auto;html=1;labelBackgroundColor=default;strokeColor=default;align=center;verticalAlign=middle;fontFamily=Helvetica;fontSize=11;fontColor=default;endArrow=none;endFill=0;" edge="1" parent="WIyWlLk6GJQsqaUBKTNV-1" source="bqVCNSVhDyANK1hjiUMb-202" target="P5qbRvnEPiiORGq3-WAF-68">
          <mxGeometry relative="1" as="geometry" />
        </mxCell>
        <mxCell id="bqVCNSVhDyANK1hjiUMb-202" value="&lt;span style=&quot;font-size: 6px;&quot;&gt;ContractType&lt;/span&gt;" style="ellipse;whiteSpace=wrap;html=1;fontFamily=Helvetica;fontSize=11;fontColor=default;" vertex="1" parent="WIyWlLk6GJQsqaUBKTNV-1">
          <mxGeometry x="606" y="886" width="63" height="18" as="geometry" />
        </mxCell>
        <mxCell id="bqVCNSVhDyANK1hjiUMb-208" value="" style="edgeStyle=none;shape=connector;rounded=0;orthogonalLoop=1;jettySize=auto;html=1;labelBackgroundColor=default;strokeColor=default;align=center;verticalAlign=middle;fontFamily=Helvetica;fontSize=11;fontColor=default;endArrow=none;endFill=0;" edge="1" parent="WIyWlLk6GJQsqaUBKTNV-1" source="bqVCNSVhDyANK1hjiUMb-203" target="P5qbRvnEPiiORGq3-WAF-68">
          <mxGeometry relative="1" as="geometry" />
        </mxCell>
        <mxCell id="bqVCNSVhDyANK1hjiUMb-203" value="&lt;span style=&quot;font-size: 6px;&quot;&gt;ContractSignDate&lt;/span&gt;" style="ellipse;whiteSpace=wrap;html=1;fontFamily=Helvetica;fontSize=11;fontColor=default;" vertex="1" parent="WIyWlLk6GJQsqaUBKTNV-1">
          <mxGeometry x="611" y="912" width="63" height="18" as="geometry" />
        </mxCell>
        <mxCell id="bqVCNSVhDyANK1hjiUMb-207" style="edgeStyle=none;shape=connector;rounded=0;orthogonalLoop=1;jettySize=auto;html=1;exitX=0;exitY=0.5;exitDx=0;exitDy=0;labelBackgroundColor=default;strokeColor=default;align=center;verticalAlign=middle;fontFamily=Helvetica;fontSize=11;fontColor=default;endArrow=none;endFill=0;" edge="1" parent="WIyWlLk6GJQsqaUBKTNV-1" source="bqVCNSVhDyANK1hjiUMb-204" target="P5qbRvnEPiiORGq3-WAF-68">
          <mxGeometry relative="1" as="geometry" />
        </mxCell>
        <mxCell id="bqVCNSVhDyANK1hjiUMb-204" value="&lt;span style=&quot;font-size: 6px;&quot;&gt;ContractProcessDate&lt;/span&gt;" style="ellipse;whiteSpace=wrap;html=1;fontFamily=Helvetica;fontSize=11;fontColor=default;" vertex="1" parent="WIyWlLk6GJQsqaUBKTNV-1">
          <mxGeometry x="598" y="940" width="63" height="18" as="geometry" />
        </mxCell>
        <mxCell id="bqVCNSVhDyANK1hjiUMb-205" value="&lt;span style=&quot;font-size: 6px;&quot;&gt;ManagerContractEndDate&lt;/span&gt;" style="ellipse;whiteSpace=wrap;html=1;fontFamily=Helvetica;fontSize=11;fontColor=default;" vertex="1" parent="WIyWlLk6GJQsqaUBKTNV-1">
          <mxGeometry x="559" y="964" width="77" height="30" as="geometry" />
        </mxCell>
        <mxCell id="bqVCNSVhDyANK1hjiUMb-206" style="edgeStyle=none;shape=connector;rounded=0;orthogonalLoop=1;jettySize=auto;html=1;exitX=0;exitY=0;exitDx=0;exitDy=0;entryX=0.59;entryY=0.903;entryDx=0;entryDy=0;entryPerimeter=0;labelBackgroundColor=default;strokeColor=default;align=center;verticalAlign=middle;fontFamily=Helvetica;fontSize=11;fontColor=default;endArrow=none;endFill=0;" edge="1" parent="WIyWlLk6GJQsqaUBKTNV-1" source="bqVCNSVhDyANK1hjiUMb-205" target="P5qbRvnEPiiORGq3-WAF-68">
          <mxGeometry relative="1" as="geometry" />
        </mxCell>
        <mxCell id="bqVCNSVhDyANK1hjiUMb-211" value="&lt;span style=&quot;font-size: 6px;&quot;&gt;SitCode&lt;/span&gt;" style="ellipse;whiteSpace=wrap;html=1;fontFamily=Helvetica;fontSize=11;fontColor=default;" vertex="1" parent="WIyWlLk6GJQsqaUBKTNV-1">
          <mxGeometry x="546" y="833" width="63" height="18" as="geometry" />
        </mxCell>
        <mxCell id="bqVCNSVhDyANK1hjiUMb-212" style="edgeStyle=none;shape=connector;rounded=0;orthogonalLoop=1;jettySize=auto;html=1;exitX=0;exitY=1;exitDx=0;exitDy=0;entryX=0.611;entryY=0.091;entryDx=0;entryDy=0;entryPerimeter=0;labelBackgroundColor=default;strokeColor=default;align=center;verticalAlign=middle;fontFamily=Helvetica;fontSize=11;fontColor=default;endArrow=none;endFill=0;" edge="1" parent="WIyWlLk6GJQsqaUBKTNV-1" source="bqVCNSVhDyANK1hjiUMb-211" target="P5qbRvnEPiiORGq3-WAF-68">
          <mxGeometry relative="1" as="geometry" />
        </mxCell>
        <mxCell id="zkolm8v5eAYaJRin338G-1" style="rounded=0;orthogonalLoop=1;jettySize=auto;html=1;exitX=1;exitY=1;exitDx=0;exitDy=0;entryX=0;entryY=0;entryDx=0;entryDy=0;endArrow=none;endFill=0;" edge="1" parent="WIyWlLk6GJQsqaUBKTNV-1" source="zkolm8v5eAYaJRin338G-0" target="P5qbRvnEPiiORGq3-WAF-54">
          <mxGeometry relative="1" as="geometry" />
        </mxCell>
        <mxCell id="zkolm8v5eAYaJRin338G-0" value="&lt;span style=&quot;font-size: 6px;&quot;&gt;EndDate&lt;/span&gt;" style="ellipse;whiteSpace=wrap;html=1;fontFamily=Helvetica;fontSize=11;fontColor=default;" vertex="1" parent="WIyWlLk6GJQsqaUBKTNV-1">
          <mxGeometry x="408" y="465" width="63" height="18" as="geometry" />
        </mxCell>
        <mxCell id="zkolm8v5eAYaJRin338G-2" value="&lt;font style=&quot;font-size: 6px;&quot;&gt;StateCoordinatorsEndDate&lt;/font&gt;" style="ellipse;whiteSpace=wrap;html=1;fontFamily=Helvetica;fontSize=11;fontColor=default;" vertex="1" parent="WIyWlLk6GJQsqaUBKTNV-1">
          <mxGeometry x="368" y="1045" width="84" height="27" as="geometry" />
        </mxCell>
        <mxCell id="zkolm8v5eAYaJRin338G-3" style="rounded=0;orthogonalLoop=1;jettySize=auto;html=1;exitX=1;exitY=0;exitDx=0;exitDy=0;entryX=0.44;entryY=0.938;entryDx=0;entryDy=0;entryPerimeter=0;endArrow=none;endFill=0;" edge="1" parent="WIyWlLk6GJQsqaUBKTNV-1" source="zkolm8v5eAYaJRin338G-2" target="P5qbRvnEPiiORGq3-WAF-68">
          <mxGeometry relative="1" as="geometry" />
        </mxCell>
        <mxCell id="zkolm8v5eAYaJRin338G-6" value="" style="rounded=0;orthogonalLoop=1;jettySize=auto;html=1;endArrow=none;endFill=0;" edge="1" parent="WIyWlLk6GJQsqaUBKTNV-1" source="zkolm8v5eAYaJRin338G-4" target="P5qbRvnEPiiORGq3-WAF-34">
          <mxGeometry relative="1" as="geometry" />
        </mxCell>
        <mxCell id="zkolm8v5eAYaJRin338G-4" value="&lt;span style=&quot;font-size: 6px;&quot;&gt;RelationshipType&lt;/span&gt;" style="ellipse;whiteSpace=wrap;html=1;fontFamily=Helvetica;fontSize=11;fontColor=default;" vertex="1" parent="WIyWlLk6GJQsqaUBKTNV-1">
          <mxGeometry x="173" y="23" width="56" height="18" as="geometry" />
        </mxCell>
        <mxCell id="zkolm8v5eAYaJRin338G-8" value="" style="edgeStyle=none;shape=connector;rounded=0;orthogonalLoop=1;jettySize=auto;html=1;labelBackgroundColor=default;strokeColor=default;align=center;verticalAlign=middle;fontFamily=Helvetica;fontSize=11;fontColor=default;endArrow=none;endFill=0;" edge="1" parent="WIyWlLk6GJQsqaUBKTNV-1" source="zkolm8v5eAYaJRin338G-7" target="P5qbRvnEPiiORGq3-WAF-34">
          <mxGeometry relative="1" as="geometry" />
        </mxCell>
        <mxCell id="zkolm8v5eAYaJRin338G-7" value="&lt;span style=&quot;font-size: 6px;&quot;&gt;StartDate&lt;/span&gt;" style="ellipse;whiteSpace=wrap;html=1;fontFamily=Helvetica;fontSize=11;fontColor=default;" vertex="1" parent="WIyWlLk6GJQsqaUBKTNV-1">
          <mxGeometry x="183" y="47" width="56" height="18" as="geometry" />
        </mxCell>
        <mxCell id="zkolm8v5eAYaJRin338G-11" value="" style="edgeStyle=none;shape=connector;rounded=0;orthogonalLoop=1;jettySize=auto;html=1;labelBackgroundColor=default;strokeColor=default;align=center;verticalAlign=middle;fontFamily=Helvetica;fontSize=11;fontColor=default;endArrow=none;endFill=0;" edge="1" parent="WIyWlLk6GJQsqaUBKTNV-1" source="zkolm8v5eAYaJRin338G-9" target="P5qbRvnEPiiORGq3-WAF-34">
          <mxGeometry relative="1" as="geometry" />
        </mxCell>
        <mxCell id="zkolm8v5eAYaJRin338G-9" value="&lt;span style=&quot;font-size: 6px;&quot;&gt;BillingFrequency&lt;/span&gt;" style="ellipse;whiteSpace=wrap;html=1;fontFamily=Helvetica;fontSize=11;fontColor=default;" vertex="1" parent="WIyWlLk6GJQsqaUBKTNV-1">
          <mxGeometry x="184" y="75" width="56" height="18" as="geometry" />
        </mxCell>
        <mxCell id="zkolm8v5eAYaJRin338G-13" value="" style="edgeStyle=none;shape=connector;rounded=0;orthogonalLoop=1;jettySize=auto;html=1;labelBackgroundColor=default;strokeColor=default;align=center;verticalAlign=middle;fontFamily=Helvetica;fontSize=11;fontColor=default;endArrow=none;endFill=0;" edge="1" parent="WIyWlLk6GJQsqaUBKTNV-1" source="zkolm8v5eAYaJRin338G-12" target="P5qbRvnEPiiORGq3-WAF-34">
          <mxGeometry relative="1" as="geometry" />
        </mxCell>
        <mxCell id="zkolm8v5eAYaJRin338G-12" value="&lt;span style=&quot;font-size: 6px;&quot;&gt;SpecificationCode&lt;/span&gt;" style="ellipse;whiteSpace=wrap;html=1;fontFamily=Helvetica;fontSize=11;fontColor=default;" vertex="1" parent="WIyWlLk6GJQsqaUBKTNV-1">
          <mxGeometry x="159" y="103" width="56" height="18" as="geometry" />
        </mxCell>
        <mxCell id="zkolm8v5eAYaJRin338G-14" value="&lt;span style=&quot;font-size: 6px;&quot;&gt;AccountType&lt;/span&gt;" style="ellipse;whiteSpace=wrap;html=1;fontFamily=Helvetica;fontSize=11;fontColor=default;" vertex="1" parent="WIyWlLk6GJQsqaUBKTNV-1">
          <mxGeometry x="109" y="128" width="56" height="18" as="geometry" />
        </mxCell>
        <mxCell id="zkolm8v5eAYaJRin338G-16" style="edgeStyle=none;shape=connector;rounded=0;orthogonalLoop=1;jettySize=auto;html=1;exitX=0.5;exitY=0;exitDx=0;exitDy=0;entryX=0.61;entryY=0.881;entryDx=0;entryDy=0;entryPerimeter=0;labelBackgroundColor=default;strokeColor=default;align=center;verticalAlign=middle;fontFamily=Helvetica;fontSize=11;fontColor=default;endArrow=none;endFill=0;" edge="1" parent="WIyWlLk6GJQsqaUBKTNV-1" source="zkolm8v5eAYaJRin338G-14" target="P5qbRvnEPiiORGq3-WAF-34">
          <mxGeometry relative="1" as="geometry" />
        </mxCell>
      </root>
    </mxGraphModel>
  </diagram>
</mxfile>
